<mxfile host="Electron" agent="Mozilla/5.0 (Windows NT 10.0; Win64; x64) AppleWebKit/537.36 (KHTML, like Gecko) draw.io/28.0.6 Chrome/138.0.7204.100 Electron/37.2.3 Safari/537.36" version="28.0.6">
  <diagram name="Page-1" id="fBCyLRc50VzOcb81UVgH">
    <mxGraphModel dx="1303" dy="783" grid="1" gridSize="10" guides="1" tooltips="1" connect="1" arrows="1" fold="1" page="1" pageScale="1" pageWidth="1169" pageHeight="827" math="0" shadow="0">
      <root>
        <mxCell id="0" />
        <mxCell id="1" parent="0" />
        <mxCell id="mGK4X3r3w6U-2YkT1dGA-1" value="gold.fact_earthquakes" style="shape=table;startSize=40;container=1;collapsible=1;childLayout=tableLayout;fixedRows=1;rowLines=0;fontStyle=1;align=center;resizeLast=1;html=1;rounded=1;fillColor=#dae8fc;strokeColor=#6c8ebf;fontSize=16;" vertex="1" parent="1">
          <mxGeometry x="390" y="150" width="390" height="1327" as="geometry" />
        </mxCell>
        <mxCell id="mGK4X3r3w6U-2YkT1dGA-2" value="" style="shape=tableRow;horizontal=0;startSize=0;swimlaneHead=0;swimlaneBody=0;fillColor=none;collapsible=0;dropTarget=0;points=[[0,0.5],[1,0.5]];portConstraint=eastwest;top=0;left=0;right=0;bottom=0;fontSize=16;" vertex="1" parent="mGK4X3r3w6U-2YkT1dGA-1">
          <mxGeometry y="40" width="390" height="39" as="geometry" />
        </mxCell>
        <mxCell id="mGK4X3r3w6U-2YkT1dGA-3" value="" style="shape=partialRectangle;connectable=0;fillColor=none;top=0;left=0;bottom=0;right=0;editable=1;overflow=hidden;whiteSpace=wrap;html=1;fontSize=16;" vertex="1" parent="mGK4X3r3w6U-2YkT1dGA-2">
          <mxGeometry width="40.00000000000023" height="39" as="geometry">
            <mxRectangle width="40.00000000000023" height="39" as="alternateBounds" />
          </mxGeometry>
        </mxCell>
        <mxCell id="mGK4X3r3w6U-2YkT1dGA-4" value="earthquake_id" style="shape=partialRectangle;connectable=0;fillColor=none;top=0;left=0;bottom=0;right=0;align=left;spacingLeft=6;overflow=hidden;whiteSpace=wrap;html=1;fontSize=16;" vertex="1" parent="mGK4X3r3w6U-2YkT1dGA-2">
          <mxGeometry x="40.00000000000023" width="349.9999999999998" height="39" as="geometry">
            <mxRectangle width="349.9999999999998" height="39" as="alternateBounds" />
          </mxGeometry>
        </mxCell>
        <mxCell id="mGK4X3r3w6U-2YkT1dGA-5" value="" style="shape=tableRow;horizontal=0;startSize=0;swimlaneHead=0;swimlaneBody=0;fillColor=none;collapsible=0;dropTarget=0;points=[[0,0.5],[1,0.5]];portConstraint=eastwest;top=0;left=0;right=0;bottom=0;fontSize=16;" vertex="1" parent="mGK4X3r3w6U-2YkT1dGA-1">
          <mxGeometry y="79" width="390" height="39" as="geometry" />
        </mxCell>
        <mxCell id="mGK4X3r3w6U-2YkT1dGA-6" value="&lt;b&gt;FK1&lt;/b&gt;" style="shape=partialRectangle;connectable=0;fillColor=none;top=0;left=0;bottom=0;right=0;editable=1;overflow=hidden;whiteSpace=wrap;html=1;fontSize=16;" vertex="1" parent="mGK4X3r3w6U-2YkT1dGA-5">
          <mxGeometry width="40.00000000000023" height="39" as="geometry">
            <mxRectangle width="40.00000000000023" height="39" as="alternateBounds" />
          </mxGeometry>
        </mxCell>
        <mxCell id="mGK4X3r3w6U-2YkT1dGA-7" value="date_key" style="shape=partialRectangle;connectable=0;fillColor=none;top=0;left=0;bottom=0;right=0;align=left;spacingLeft=6;overflow=hidden;whiteSpace=wrap;html=1;fontSize=16;" vertex="1" parent="mGK4X3r3w6U-2YkT1dGA-5">
          <mxGeometry x="40.00000000000023" width="349.9999999999998" height="39" as="geometry">
            <mxRectangle width="349.9999999999998" height="39" as="alternateBounds" />
          </mxGeometry>
        </mxCell>
        <mxCell id="mGK4X3r3w6U-2YkT1dGA-8" value="" style="shape=tableRow;horizontal=0;startSize=0;swimlaneHead=0;swimlaneBody=0;fillColor=none;collapsible=0;dropTarget=0;points=[[0,0.5],[1,0.5]];portConstraint=eastwest;top=0;left=0;right=0;bottom=0;fontSize=16;" vertex="1" parent="mGK4X3r3w6U-2YkT1dGA-1">
          <mxGeometry y="118" width="390" height="39" as="geometry" />
        </mxCell>
        <mxCell id="mGK4X3r3w6U-2YkT1dGA-9" value="&lt;b&gt;FK2&lt;/b&gt;" style="shape=partialRectangle;connectable=0;fillColor=none;top=0;left=0;bottom=0;right=0;editable=1;overflow=hidden;whiteSpace=wrap;html=1;fontSize=16;" vertex="1" parent="mGK4X3r3w6U-2YkT1dGA-8">
          <mxGeometry width="40.00000000000023" height="39" as="geometry">
            <mxRectangle width="40.00000000000023" height="39" as="alternateBounds" />
          </mxGeometry>
        </mxCell>
        <mxCell id="mGK4X3r3w6U-2YkT1dGA-10" value="alert_key" style="shape=partialRectangle;connectable=0;fillColor=none;top=0;left=0;bottom=0;right=0;align=left;spacingLeft=6;overflow=hidden;whiteSpace=wrap;html=1;fontSize=16;" vertex="1" parent="mGK4X3r3w6U-2YkT1dGA-8">
          <mxGeometry x="40.00000000000023" width="349.9999999999998" height="39" as="geometry">
            <mxRectangle width="349.9999999999998" height="39" as="alternateBounds" />
          </mxGeometry>
        </mxCell>
        <mxCell id="mGK4X3r3w6U-2YkT1dGA-11" style="shape=tableRow;horizontal=0;startSize=0;swimlaneHead=0;swimlaneBody=0;fillColor=none;collapsible=0;dropTarget=0;points=[[0,0.5],[1,0.5]];portConstraint=eastwest;top=0;left=0;right=0;bottom=0;fontSize=16;" vertex="1" parent="mGK4X3r3w6U-2YkT1dGA-1">
          <mxGeometry y="157" width="390" height="39" as="geometry" />
        </mxCell>
        <mxCell id="mGK4X3r3w6U-2YkT1dGA-12" value="&lt;div&gt;&lt;b style=&quot;color: rgb(0, 0, 0); background-color: rgb(236, 236, 236);&quot;&gt;FK3&lt;/b&gt;&lt;/div&gt;" style="shape=partialRectangle;connectable=0;fillColor=none;top=0;left=0;bottom=0;right=0;editable=1;overflow=hidden;whiteSpace=wrap;html=1;fontSize=16;" vertex="1" parent="mGK4X3r3w6U-2YkT1dGA-11">
          <mxGeometry width="40.00000000000023" height="39" as="geometry">
            <mxRectangle width="40.00000000000023" height="39" as="alternateBounds" />
          </mxGeometry>
        </mxCell>
        <mxCell id="mGK4X3r3w6U-2YkT1dGA-13" value="event_type_key" style="shape=partialRectangle;connectable=0;fillColor=none;top=0;left=0;bottom=0;right=0;align=left;spacingLeft=6;overflow=hidden;whiteSpace=wrap;html=1;fontSize=16;" vertex="1" parent="mGK4X3r3w6U-2YkT1dGA-11">
          <mxGeometry x="40.00000000000023" width="349.9999999999998" height="39" as="geometry">
            <mxRectangle width="349.9999999999998" height="39" as="alternateBounds" />
          </mxGeometry>
        </mxCell>
        <mxCell id="mGK4X3r3w6U-2YkT1dGA-14" style="shape=tableRow;horizontal=0;startSize=0;swimlaneHead=0;swimlaneBody=0;fillColor=none;collapsible=0;dropTarget=0;points=[[0,0.5],[1,0.5]];portConstraint=eastwest;top=0;left=0;right=0;bottom=0;fontSize=16;" vertex="1" parent="mGK4X3r3w6U-2YkT1dGA-1">
          <mxGeometry y="196" width="390" height="39" as="geometry" />
        </mxCell>
        <mxCell id="mGK4X3r3w6U-2YkT1dGA-15" value="&lt;b style=&quot;forced-color-adjust: none; color: rgb(0, 0, 0); font-family: Helvetica; font-size: 16px; font-style: normal; font-variant-ligatures: normal; font-variant-caps: normal; letter-spacing: normal; orphans: 2; text-align: center; text-indent: 0px; text-transform: none; widows: 2; word-spacing: 0px; -webkit-text-stroke-width: 0px; white-space: normal; background-color: rgb(236, 236, 236); text-decoration-thickness: initial; text-decoration-style: initial; text-decoration-color: initial;&quot;&gt;FK4&lt;/b&gt;" style="shape=partialRectangle;connectable=0;fillColor=none;top=0;left=0;bottom=0;right=0;editable=1;overflow=hidden;whiteSpace=wrap;html=1;fontSize=16;" vertex="1" parent="mGK4X3r3w6U-2YkT1dGA-14">
          <mxGeometry width="40.00000000000023" height="39" as="geometry">
            <mxRectangle width="40.00000000000023" height="39" as="alternateBounds" />
          </mxGeometry>
        </mxCell>
        <mxCell id="mGK4X3r3w6U-2YkT1dGA-16" value="magnitude_method_key" style="shape=partialRectangle;connectable=0;fillColor=none;top=0;left=0;bottom=0;right=0;align=left;spacingLeft=6;overflow=hidden;whiteSpace=wrap;html=1;fontSize=16;" vertex="1" parent="mGK4X3r3w6U-2YkT1dGA-14">
          <mxGeometry x="40.00000000000023" width="349.9999999999998" height="39" as="geometry">
            <mxRectangle width="349.9999999999998" height="39" as="alternateBounds" />
          </mxGeometry>
        </mxCell>
        <mxCell id="mGK4X3r3w6U-2YkT1dGA-17" style="shape=tableRow;horizontal=0;startSize=0;swimlaneHead=0;swimlaneBody=0;fillColor=none;collapsible=0;dropTarget=0;points=[[0,0.5],[1,0.5]];portConstraint=eastwest;top=0;left=0;right=0;bottom=0;fontSize=16;" vertex="1" parent="mGK4X3r3w6U-2YkT1dGA-1">
          <mxGeometry y="235" width="390" height="39" as="geometry" />
        </mxCell>
        <mxCell id="mGK4X3r3w6U-2YkT1dGA-18" value="&lt;b style=&quot;forced-color-adjust: none; color: rgb(0, 0, 0); font-family: Helvetica; font-size: 16px; font-style: normal; font-variant-ligatures: normal; font-variant-caps: normal; letter-spacing: normal; orphans: 2; text-align: center; text-indent: 0px; text-transform: none; widows: 2; word-spacing: 0px; -webkit-text-stroke-width: 0px; white-space: normal; background-color: rgb(236, 236, 236); text-decoration-thickness: initial; text-decoration-style: initial; text-decoration-color: initial;&quot;&gt;FK5&lt;/b&gt;" style="shape=partialRectangle;connectable=0;fillColor=none;top=0;left=0;bottom=0;right=0;editable=1;overflow=hidden;whiteSpace=wrap;html=1;fontSize=16;" vertex="1" parent="mGK4X3r3w6U-2YkT1dGA-17">
          <mxGeometry width="40.00000000000023" height="39" as="geometry">
            <mxRectangle width="40.00000000000023" height="39" as="alternateBounds" />
          </mxGeometry>
        </mxCell>
        <mxCell id="mGK4X3r3w6U-2YkT1dGA-19" value="network_key" style="shape=partialRectangle;connectable=0;fillColor=none;top=0;left=0;bottom=0;right=0;align=left;spacingLeft=6;overflow=hidden;whiteSpace=wrap;html=1;fontSize=16;" vertex="1" parent="mGK4X3r3w6U-2YkT1dGA-17">
          <mxGeometry x="40.00000000000023" width="349.9999999999998" height="39" as="geometry">
            <mxRectangle width="349.9999999999998" height="39" as="alternateBounds" />
          </mxGeometry>
        </mxCell>
        <mxCell id="mGK4X3r3w6U-2YkT1dGA-20" style="shape=tableRow;horizontal=0;startSize=0;swimlaneHead=0;swimlaneBody=0;fillColor=none;collapsible=0;dropTarget=0;points=[[0,0.5],[1,0.5]];portConstraint=eastwest;top=0;left=0;right=0;bottom=0;fontSize=16;" vertex="1" parent="mGK4X3r3w6U-2YkT1dGA-1">
          <mxGeometry y="274" width="390" height="39" as="geometry" />
        </mxCell>
        <mxCell id="mGK4X3r3w6U-2YkT1dGA-21" value="&lt;b style=&quot;forced-color-adjust: none; color: rgb(0, 0, 0); font-family: Helvetica; font-size: 16px; font-style: normal; font-variant-ligatures: normal; font-variant-caps: normal; letter-spacing: normal; orphans: 2; text-align: center; text-indent: 0px; text-transform: none; widows: 2; word-spacing: 0px; -webkit-text-stroke-width: 0px; white-space: normal; background-color: rgb(236, 236, 236); text-decoration-thickness: initial; text-decoration-style: initial; text-decoration-color: initial;&quot;&gt;FK6&lt;/b&gt;" style="shape=partialRectangle;connectable=0;fillColor=none;top=0;left=0;bottom=0;right=0;editable=1;overflow=hidden;whiteSpace=wrap;html=1;fontSize=16;" vertex="1" parent="mGK4X3r3w6U-2YkT1dGA-20">
          <mxGeometry width="40.00000000000023" height="39" as="geometry">
            <mxRectangle width="40.00000000000023" height="39" as="alternateBounds" />
          </mxGeometry>
        </mxCell>
        <mxCell id="mGK4X3r3w6U-2YkT1dGA-22" value="status_key" style="shape=partialRectangle;connectable=0;fillColor=none;top=0;left=0;bottom=0;right=0;align=left;spacingLeft=6;overflow=hidden;whiteSpace=wrap;html=1;fontSize=16;" vertex="1" parent="mGK4X3r3w6U-2YkT1dGA-20">
          <mxGeometry x="40.00000000000023" width="349.9999999999998" height="39" as="geometry">
            <mxRectangle width="349.9999999999998" height="39" as="alternateBounds" />
          </mxGeometry>
        </mxCell>
        <mxCell id="mGK4X3r3w6U-2YkT1dGA-23" style="shape=tableRow;horizontal=0;startSize=0;swimlaneHead=0;swimlaneBody=0;fillColor=none;collapsible=0;dropTarget=0;points=[[0,0.5],[1,0.5]];portConstraint=eastwest;top=0;left=0;right=0;bottom=0;fontSize=16;" vertex="1" parent="mGK4X3r3w6U-2YkT1dGA-1">
          <mxGeometry y="313" width="390" height="39" as="geometry" />
        </mxCell>
        <mxCell id="mGK4X3r3w6U-2YkT1dGA-24" style="shape=partialRectangle;connectable=0;fillColor=none;top=0;left=0;bottom=0;right=0;editable=1;overflow=hidden;whiteSpace=wrap;html=1;fontSize=16;" vertex="1" parent="mGK4X3r3w6U-2YkT1dGA-23">
          <mxGeometry width="40.00000000000023" height="39" as="geometry">
            <mxRectangle width="40.00000000000023" height="39" as="alternateBounds" />
          </mxGeometry>
        </mxCell>
        <mxCell id="mGK4X3r3w6U-2YkT1dGA-25" value="magnitude" style="shape=partialRectangle;connectable=0;fillColor=none;top=0;left=0;bottom=0;right=0;align=left;spacingLeft=6;overflow=hidden;whiteSpace=wrap;html=1;fontSize=16;" vertex="1" parent="mGK4X3r3w6U-2YkT1dGA-23">
          <mxGeometry x="40.00000000000023" width="349.9999999999998" height="39" as="geometry">
            <mxRectangle width="349.9999999999998" height="39" as="alternateBounds" />
          </mxGeometry>
        </mxCell>
        <mxCell id="mGK4X3r3w6U-2YkT1dGA-26" style="shape=tableRow;horizontal=0;startSize=0;swimlaneHead=0;swimlaneBody=0;fillColor=none;collapsible=0;dropTarget=0;points=[[0,0.5],[1,0.5]];portConstraint=eastwest;top=0;left=0;right=0;bottom=0;fontSize=16;" vertex="1" parent="mGK4X3r3w6U-2YkT1dGA-1">
          <mxGeometry y="352" width="390" height="39" as="geometry" />
        </mxCell>
        <mxCell id="mGK4X3r3w6U-2YkT1dGA-27" style="shape=partialRectangle;connectable=0;fillColor=none;top=0;left=0;bottom=0;right=0;editable=1;overflow=hidden;whiteSpace=wrap;html=1;fontSize=16;" vertex="1" parent="mGK4X3r3w6U-2YkT1dGA-26">
          <mxGeometry width="40.00000000000023" height="39" as="geometry">
            <mxRectangle width="40.00000000000023" height="39" as="alternateBounds" />
          </mxGeometry>
        </mxCell>
        <mxCell id="mGK4X3r3w6U-2YkT1dGA-28" value="magnitude_group" style="shape=partialRectangle;connectable=0;fillColor=none;top=0;left=0;bottom=0;right=0;align=left;spacingLeft=6;overflow=hidden;whiteSpace=wrap;html=1;fontSize=16;" vertex="1" parent="mGK4X3r3w6U-2YkT1dGA-26">
          <mxGeometry x="40.00000000000023" width="349.9999999999998" height="39" as="geometry">
            <mxRectangle width="349.9999999999998" height="39" as="alternateBounds" />
          </mxGeometry>
        </mxCell>
        <mxCell id="mGK4X3r3w6U-2YkT1dGA-50" style="shape=tableRow;horizontal=0;startSize=0;swimlaneHead=0;swimlaneBody=0;fillColor=none;collapsible=0;dropTarget=0;points=[[0,0.5],[1,0.5]];portConstraint=eastwest;top=0;left=0;right=0;bottom=0;fontSize=16;" vertex="1" parent="mGK4X3r3w6U-2YkT1dGA-1">
          <mxGeometry y="391" width="390" height="39" as="geometry" />
        </mxCell>
        <mxCell id="mGK4X3r3w6U-2YkT1dGA-51" style="shape=partialRectangle;connectable=0;fillColor=none;top=0;left=0;bottom=0;right=0;editable=1;overflow=hidden;whiteSpace=wrap;html=1;fontSize=16;" vertex="1" parent="mGK4X3r3w6U-2YkT1dGA-50">
          <mxGeometry width="40.00000000000023" height="39" as="geometry">
            <mxRectangle width="40.00000000000023" height="39" as="alternateBounds" />
          </mxGeometry>
        </mxCell>
        <mxCell id="mGK4X3r3w6U-2YkT1dGA-52" value="latitude" style="shape=partialRectangle;connectable=0;fillColor=none;top=0;left=0;bottom=0;right=0;align=left;spacingLeft=6;overflow=hidden;whiteSpace=wrap;html=1;fontSize=16;" vertex="1" parent="mGK4X3r3w6U-2YkT1dGA-50">
          <mxGeometry x="40.00000000000023" width="349.9999999999998" height="39" as="geometry">
            <mxRectangle width="349.9999999999998" height="39" as="alternateBounds" />
          </mxGeometry>
        </mxCell>
        <mxCell id="mGK4X3r3w6U-2YkT1dGA-47" style="shape=tableRow;horizontal=0;startSize=0;swimlaneHead=0;swimlaneBody=0;fillColor=none;collapsible=0;dropTarget=0;points=[[0,0.5],[1,0.5]];portConstraint=eastwest;top=0;left=0;right=0;bottom=0;fontSize=16;" vertex="1" parent="mGK4X3r3w6U-2YkT1dGA-1">
          <mxGeometry y="430" width="390" height="39" as="geometry" />
        </mxCell>
        <mxCell id="mGK4X3r3w6U-2YkT1dGA-48" style="shape=partialRectangle;connectable=0;fillColor=none;top=0;left=0;bottom=0;right=0;editable=1;overflow=hidden;whiteSpace=wrap;html=1;fontSize=16;" vertex="1" parent="mGK4X3r3w6U-2YkT1dGA-47">
          <mxGeometry width="40.00000000000023" height="39" as="geometry">
            <mxRectangle width="40.00000000000023" height="39" as="alternateBounds" />
          </mxGeometry>
        </mxCell>
        <mxCell id="mGK4X3r3w6U-2YkT1dGA-49" value="longitude" style="shape=partialRectangle;connectable=0;fillColor=none;top=0;left=0;bottom=0;right=0;align=left;spacingLeft=6;overflow=hidden;whiteSpace=wrap;html=1;fontSize=16;" vertex="1" parent="mGK4X3r3w6U-2YkT1dGA-47">
          <mxGeometry x="40.00000000000023" width="349.9999999999998" height="39" as="geometry">
            <mxRectangle width="349.9999999999998" height="39" as="alternateBounds" />
          </mxGeometry>
        </mxCell>
        <mxCell id="mGK4X3r3w6U-2YkT1dGA-44" style="shape=tableRow;horizontal=0;startSize=0;swimlaneHead=0;swimlaneBody=0;fillColor=none;collapsible=0;dropTarget=0;points=[[0,0.5],[1,0.5]];portConstraint=eastwest;top=0;left=0;right=0;bottom=0;fontSize=16;" vertex="1" parent="mGK4X3r3w6U-2YkT1dGA-1">
          <mxGeometry y="469" width="390" height="39" as="geometry" />
        </mxCell>
        <mxCell id="mGK4X3r3w6U-2YkT1dGA-45" style="shape=partialRectangle;connectable=0;fillColor=none;top=0;left=0;bottom=0;right=0;editable=1;overflow=hidden;whiteSpace=wrap;html=1;fontSize=16;" vertex="1" parent="mGK4X3r3w6U-2YkT1dGA-44">
          <mxGeometry width="40.00000000000023" height="39" as="geometry">
            <mxRectangle width="40.00000000000023" height="39" as="alternateBounds" />
          </mxGeometry>
        </mxCell>
        <mxCell id="mGK4X3r3w6U-2YkT1dGA-46" value="depth_km" style="shape=partialRectangle;connectable=0;fillColor=none;top=0;left=0;bottom=0;right=0;align=left;spacingLeft=6;overflow=hidden;whiteSpace=wrap;html=1;fontSize=16;" vertex="1" parent="mGK4X3r3w6U-2YkT1dGA-44">
          <mxGeometry x="40.00000000000023" width="349.9999999999998" height="39" as="geometry">
            <mxRectangle width="349.9999999999998" height="39" as="alternateBounds" />
          </mxGeometry>
        </mxCell>
        <mxCell id="mGK4X3r3w6U-2YkT1dGA-41" style="shape=tableRow;horizontal=0;startSize=0;swimlaneHead=0;swimlaneBody=0;fillColor=none;collapsible=0;dropTarget=0;points=[[0,0.5],[1,0.5]];portConstraint=eastwest;top=0;left=0;right=0;bottom=0;fontSize=16;" vertex="1" parent="mGK4X3r3w6U-2YkT1dGA-1">
          <mxGeometry y="508" width="390" height="39" as="geometry" />
        </mxCell>
        <mxCell id="mGK4X3r3w6U-2YkT1dGA-42" style="shape=partialRectangle;connectable=0;fillColor=none;top=0;left=0;bottom=0;right=0;editable=1;overflow=hidden;whiteSpace=wrap;html=1;fontSize=16;" vertex="1" parent="mGK4X3r3w6U-2YkT1dGA-41">
          <mxGeometry width="40.00000000000023" height="39" as="geometry">
            <mxRectangle width="40.00000000000023" height="39" as="alternateBounds" />
          </mxGeometry>
        </mxCell>
        <mxCell id="mGK4X3r3w6U-2YkT1dGA-43" value="community_decimal_intensity" style="shape=partialRectangle;connectable=0;fillColor=none;top=0;left=0;bottom=0;right=0;align=left;spacingLeft=6;overflow=hidden;whiteSpace=wrap;html=1;fontSize=16;" vertex="1" parent="mGK4X3r3w6U-2YkT1dGA-41">
          <mxGeometry x="40.00000000000023" width="349.9999999999998" height="39" as="geometry">
            <mxRectangle width="349.9999999999998" height="39" as="alternateBounds" />
          </mxGeometry>
        </mxCell>
        <mxCell id="mGK4X3r3w6U-2YkT1dGA-38" style="shape=tableRow;horizontal=0;startSize=0;swimlaneHead=0;swimlaneBody=0;fillColor=none;collapsible=0;dropTarget=0;points=[[0,0.5],[1,0.5]];portConstraint=eastwest;top=0;left=0;right=0;bottom=0;fontSize=16;" vertex="1" parent="mGK4X3r3w6U-2YkT1dGA-1">
          <mxGeometry y="547" width="390" height="39" as="geometry" />
        </mxCell>
        <mxCell id="mGK4X3r3w6U-2YkT1dGA-39" style="shape=partialRectangle;connectable=0;fillColor=none;top=0;left=0;bottom=0;right=0;editable=1;overflow=hidden;whiteSpace=wrap;html=1;fontSize=16;" vertex="1" parent="mGK4X3r3w6U-2YkT1dGA-38">
          <mxGeometry width="40.00000000000023" height="39" as="geometry">
            <mxRectangle width="40.00000000000023" height="39" as="alternateBounds" />
          </mxGeometry>
        </mxCell>
        <mxCell id="mGK4X3r3w6U-2YkT1dGA-40" value="modified_mercalli_intensity" style="shape=partialRectangle;connectable=0;fillColor=none;top=0;left=0;bottom=0;right=0;align=left;spacingLeft=6;overflow=hidden;whiteSpace=wrap;html=1;fontSize=16;" vertex="1" parent="mGK4X3r3w6U-2YkT1dGA-38">
          <mxGeometry x="40.00000000000023" width="349.9999999999998" height="39" as="geometry">
            <mxRectangle width="349.9999999999998" height="39" as="alternateBounds" />
          </mxGeometry>
        </mxCell>
        <mxCell id="mGK4X3r3w6U-2YkT1dGA-35" style="shape=tableRow;horizontal=0;startSize=0;swimlaneHead=0;swimlaneBody=0;fillColor=none;collapsible=0;dropTarget=0;points=[[0,0.5],[1,0.5]];portConstraint=eastwest;top=0;left=0;right=0;bottom=0;fontSize=16;" vertex="1" parent="mGK4X3r3w6U-2YkT1dGA-1">
          <mxGeometry y="586" width="390" height="39" as="geometry" />
        </mxCell>
        <mxCell id="mGK4X3r3w6U-2YkT1dGA-36" style="shape=partialRectangle;connectable=0;fillColor=none;top=0;left=0;bottom=0;right=0;editable=1;overflow=hidden;whiteSpace=wrap;html=1;fontSize=16;" vertex="1" parent="mGK4X3r3w6U-2YkT1dGA-35">
          <mxGeometry width="40.00000000000023" height="39" as="geometry">
            <mxRectangle width="40.00000000000023" height="39" as="alternateBounds" />
          </mxGeometry>
        </mxCell>
        <mxCell id="mGK4X3r3w6U-2YkT1dGA-37" value="has_noaa_tsunami_link" style="shape=partialRectangle;connectable=0;fillColor=none;top=0;left=0;bottom=0;right=0;align=left;spacingLeft=6;overflow=hidden;whiteSpace=wrap;html=1;fontSize=16;" vertex="1" parent="mGK4X3r3w6U-2YkT1dGA-35">
          <mxGeometry x="40.00000000000023" width="349.9999999999998" height="39" as="geometry">
            <mxRectangle width="349.9999999999998" height="39" as="alternateBounds" />
          </mxGeometry>
        </mxCell>
        <mxCell id="mGK4X3r3w6U-2YkT1dGA-32" style="shape=tableRow;horizontal=0;startSize=0;swimlaneHead=0;swimlaneBody=0;fillColor=none;collapsible=0;dropTarget=0;points=[[0,0.5],[1,0.5]];portConstraint=eastwest;top=0;left=0;right=0;bottom=0;fontSize=16;" vertex="1" parent="mGK4X3r3w6U-2YkT1dGA-1">
          <mxGeometry y="625" width="390" height="39" as="geometry" />
        </mxCell>
        <mxCell id="mGK4X3r3w6U-2YkT1dGA-33" style="shape=partialRectangle;connectable=0;fillColor=none;top=0;left=0;bottom=0;right=0;editable=1;overflow=hidden;whiteSpace=wrap;html=1;fontSize=16;" vertex="1" parent="mGK4X3r3w6U-2YkT1dGA-32">
          <mxGeometry width="40.00000000000023" height="39" as="geometry">
            <mxRectangle width="40.00000000000023" height="39" as="alternateBounds" />
          </mxGeometry>
        </mxCell>
        <mxCell id="mGK4X3r3w6U-2YkT1dGA-34" value="number_of_stations" style="shape=partialRectangle;connectable=0;fillColor=none;top=0;left=0;bottom=0;right=0;align=left;spacingLeft=6;overflow=hidden;whiteSpace=wrap;html=1;fontSize=16;" vertex="1" parent="mGK4X3r3w6U-2YkT1dGA-32">
          <mxGeometry x="40.00000000000023" width="349.9999999999998" height="39" as="geometry">
            <mxRectangle width="349.9999999999998" height="39" as="alternateBounds" />
          </mxGeometry>
        </mxCell>
        <mxCell id="mGK4X3r3w6U-2YkT1dGA-80" style="shape=tableRow;horizontal=0;startSize=0;swimlaneHead=0;swimlaneBody=0;fillColor=none;collapsible=0;dropTarget=0;points=[[0,0.5],[1,0.5]];portConstraint=eastwest;top=0;left=0;right=0;bottom=0;fontSize=16;" vertex="1" parent="mGK4X3r3w6U-2YkT1dGA-1">
          <mxGeometry y="664" width="390" height="39" as="geometry" />
        </mxCell>
        <mxCell id="mGK4X3r3w6U-2YkT1dGA-81" style="shape=partialRectangle;connectable=0;fillColor=none;top=0;left=0;bottom=0;right=0;editable=1;overflow=hidden;whiteSpace=wrap;html=1;fontSize=16;" vertex="1" parent="mGK4X3r3w6U-2YkT1dGA-80">
          <mxGeometry width="40.00000000000023" height="39" as="geometry">
            <mxRectangle width="40.00000000000023" height="39" as="alternateBounds" />
          </mxGeometry>
        </mxCell>
        <mxCell id="mGK4X3r3w6U-2YkT1dGA-82" value="horizontal_distance_to_nearest_station_deg" style="shape=partialRectangle;connectable=0;fillColor=none;top=0;left=0;bottom=0;right=0;align=left;spacingLeft=6;overflow=hidden;whiteSpace=wrap;html=1;fontSize=16;" vertex="1" parent="mGK4X3r3w6U-2YkT1dGA-80">
          <mxGeometry x="40.00000000000023" width="349.9999999999998" height="39" as="geometry">
            <mxRectangle width="349.9999999999998" height="39" as="alternateBounds" />
          </mxGeometry>
        </mxCell>
        <mxCell id="mGK4X3r3w6U-2YkT1dGA-77" style="shape=tableRow;horizontal=0;startSize=0;swimlaneHead=0;swimlaneBody=0;fillColor=none;collapsible=0;dropTarget=0;points=[[0,0.5],[1,0.5]];portConstraint=eastwest;top=0;left=0;right=0;bottom=0;fontSize=16;" vertex="1" parent="mGK4X3r3w6U-2YkT1dGA-1">
          <mxGeometry y="703" width="390" height="39" as="geometry" />
        </mxCell>
        <mxCell id="mGK4X3r3w6U-2YkT1dGA-78" style="shape=partialRectangle;connectable=0;fillColor=none;top=0;left=0;bottom=0;right=0;editable=1;overflow=hidden;whiteSpace=wrap;html=1;fontSize=16;" vertex="1" parent="mGK4X3r3w6U-2YkT1dGA-77">
          <mxGeometry width="40.00000000000023" height="39" as="geometry">
            <mxRectangle width="40.00000000000023" height="39" as="alternateBounds" />
          </mxGeometry>
        </mxCell>
        <mxCell id="mGK4X3r3w6U-2YkT1dGA-79" value="rms_travel_time_residual_sec" style="shape=partialRectangle;connectable=0;fillColor=none;top=0;left=0;bottom=0;right=0;align=left;spacingLeft=6;overflow=hidden;whiteSpace=wrap;html=1;fontSize=16;" vertex="1" parent="mGK4X3r3w6U-2YkT1dGA-77">
          <mxGeometry x="40.00000000000023" width="349.9999999999998" height="39" as="geometry">
            <mxRectangle width="349.9999999999998" height="39" as="alternateBounds" />
          </mxGeometry>
        </mxCell>
        <mxCell id="mGK4X3r3w6U-2YkT1dGA-74" style="shape=tableRow;horizontal=0;startSize=0;swimlaneHead=0;swimlaneBody=0;fillColor=none;collapsible=0;dropTarget=0;points=[[0,0.5],[1,0.5]];portConstraint=eastwest;top=0;left=0;right=0;bottom=0;fontSize=16;" vertex="1" parent="mGK4X3r3w6U-2YkT1dGA-1">
          <mxGeometry y="742" width="390" height="39" as="geometry" />
        </mxCell>
        <mxCell id="mGK4X3r3w6U-2YkT1dGA-75" style="shape=partialRectangle;connectable=0;fillColor=none;top=0;left=0;bottom=0;right=0;editable=1;overflow=hidden;whiteSpace=wrap;html=1;fontSize=16;" vertex="1" parent="mGK4X3r3w6U-2YkT1dGA-74">
          <mxGeometry width="40.00000000000023" height="39" as="geometry">
            <mxRectangle width="40.00000000000023" height="39" as="alternateBounds" />
          </mxGeometry>
        </mxCell>
        <mxCell id="mGK4X3r3w6U-2YkT1dGA-76" value="azimuthal_gap_deg" style="shape=partialRectangle;connectable=0;fillColor=none;top=0;left=0;bottom=0;right=0;align=left;spacingLeft=6;overflow=hidden;whiteSpace=wrap;html=1;fontSize=16;" vertex="1" parent="mGK4X3r3w6U-2YkT1dGA-74">
          <mxGeometry x="40.00000000000023" width="349.9999999999998" height="39" as="geometry">
            <mxRectangle width="349.9999999999998" height="39" as="alternateBounds" />
          </mxGeometry>
        </mxCell>
        <mxCell id="mGK4X3r3w6U-2YkT1dGA-71" style="shape=tableRow;horizontal=0;startSize=0;swimlaneHead=0;swimlaneBody=0;fillColor=none;collapsible=0;dropTarget=0;points=[[0,0.5],[1,0.5]];portConstraint=eastwest;top=0;left=0;right=0;bottom=0;fontSize=16;" vertex="1" parent="mGK4X3r3w6U-2YkT1dGA-1">
          <mxGeometry y="781" width="390" height="39" as="geometry" />
        </mxCell>
        <mxCell id="mGK4X3r3w6U-2YkT1dGA-72" style="shape=partialRectangle;connectable=0;fillColor=none;top=0;left=0;bottom=0;right=0;editable=1;overflow=hidden;whiteSpace=wrap;html=1;fontSize=16;" vertex="1" parent="mGK4X3r3w6U-2YkT1dGA-71">
          <mxGeometry width="40.00000000000023" height="39" as="geometry">
            <mxRectangle width="40.00000000000023" height="39" as="alternateBounds" />
          </mxGeometry>
        </mxCell>
        <mxCell id="mGK4X3r3w6U-2YkT1dGA-73" value="place" style="shape=partialRectangle;connectable=0;fillColor=none;top=0;left=0;bottom=0;right=0;align=left;spacingLeft=6;overflow=hidden;whiteSpace=wrap;html=1;fontSize=16;" vertex="1" parent="mGK4X3r3w6U-2YkT1dGA-71">
          <mxGeometry x="40.00000000000023" width="349.9999999999998" height="39" as="geometry">
            <mxRectangle width="349.9999999999998" height="39" as="alternateBounds" />
          </mxGeometry>
        </mxCell>
        <mxCell id="mGK4X3r3w6U-2YkT1dGA-68" style="shape=tableRow;horizontal=0;startSize=0;swimlaneHead=0;swimlaneBody=0;fillColor=none;collapsible=0;dropTarget=0;points=[[0,0.5],[1,0.5]];portConstraint=eastwest;top=0;left=0;right=0;bottom=0;fontSize=16;" vertex="1" parent="mGK4X3r3w6U-2YkT1dGA-1">
          <mxGeometry y="820" width="390" height="39" as="geometry" />
        </mxCell>
        <mxCell id="mGK4X3r3w6U-2YkT1dGA-69" style="shape=partialRectangle;connectable=0;fillColor=none;top=0;left=0;bottom=0;right=0;editable=1;overflow=hidden;whiteSpace=wrap;html=1;fontSize=16;" vertex="1" parent="mGK4X3r3w6U-2YkT1dGA-68">
          <mxGeometry width="40.00000000000023" height="39" as="geometry">
            <mxRectangle width="40.00000000000023" height="39" as="alternateBounds" />
          </mxGeometry>
        </mxCell>
        <mxCell id="mGK4X3r3w6U-2YkT1dGA-70" value="code" style="shape=partialRectangle;connectable=0;fillColor=none;top=0;left=0;bottom=0;right=0;align=left;spacingLeft=6;overflow=hidden;whiteSpace=wrap;html=1;fontSize=16;" vertex="1" parent="mGK4X3r3w6U-2YkT1dGA-68">
          <mxGeometry x="40.00000000000023" width="349.9999999999998" height="39" as="geometry">
            <mxRectangle width="349.9999999999998" height="39" as="alternateBounds" />
          </mxGeometry>
        </mxCell>
        <mxCell id="mGK4X3r3w6U-2YkT1dGA-65" style="shape=tableRow;horizontal=0;startSize=0;swimlaneHead=0;swimlaneBody=0;fillColor=none;collapsible=0;dropTarget=0;points=[[0,0.5],[1,0.5]];portConstraint=eastwest;top=0;left=0;right=0;bottom=0;fontSize=16;" vertex="1" parent="mGK4X3r3w6U-2YkT1dGA-1">
          <mxGeometry y="859" width="390" height="39" as="geometry" />
        </mxCell>
        <mxCell id="mGK4X3r3w6U-2YkT1dGA-66" style="shape=partialRectangle;connectable=0;fillColor=none;top=0;left=0;bottom=0;right=0;editable=1;overflow=hidden;whiteSpace=wrap;html=1;fontSize=16;" vertex="1" parent="mGK4X3r3w6U-2YkT1dGA-65">
          <mxGeometry width="40.00000000000023" height="39" as="geometry">
            <mxRectangle width="40.00000000000023" height="39" as="alternateBounds" />
          </mxGeometry>
        </mxCell>
        <mxCell id="mGK4X3r3w6U-2YkT1dGA-67" value="title" style="shape=partialRectangle;connectable=0;fillColor=none;top=0;left=0;bottom=0;right=0;align=left;spacingLeft=6;overflow=hidden;whiteSpace=wrap;html=1;fontSize=16;" vertex="1" parent="mGK4X3r3w6U-2YkT1dGA-65">
          <mxGeometry x="40.00000000000023" width="349.9999999999998" height="39" as="geometry">
            <mxRectangle width="349.9999999999998" height="39" as="alternateBounds" />
          </mxGeometry>
        </mxCell>
        <mxCell id="mGK4X3r3w6U-2YkT1dGA-62" style="shape=tableRow;horizontal=0;startSize=0;swimlaneHead=0;swimlaneBody=0;fillColor=none;collapsible=0;dropTarget=0;points=[[0,0.5],[1,0.5]];portConstraint=eastwest;top=0;left=0;right=0;bottom=0;fontSize=16;" vertex="1" parent="mGK4X3r3w6U-2YkT1dGA-1">
          <mxGeometry y="898" width="390" height="39" as="geometry" />
        </mxCell>
        <mxCell id="mGK4X3r3w6U-2YkT1dGA-63" style="shape=partialRectangle;connectable=0;fillColor=none;top=0;left=0;bottom=0;right=0;editable=1;overflow=hidden;whiteSpace=wrap;html=1;fontSize=16;" vertex="1" parent="mGK4X3r3w6U-2YkT1dGA-62">
          <mxGeometry width="40.00000000000023" height="39" as="geometry">
            <mxRectangle width="40.00000000000023" height="39" as="alternateBounds" />
          </mxGeometry>
        </mxCell>
        <mxCell id="mGK4X3r3w6U-2YkT1dGA-64" value="detail" style="shape=partialRectangle;connectable=0;fillColor=none;top=0;left=0;bottom=0;right=0;align=left;spacingLeft=6;overflow=hidden;whiteSpace=wrap;html=1;fontSize=16;" vertex="1" parent="mGK4X3r3w6U-2YkT1dGA-62">
          <mxGeometry x="40.00000000000023" width="349.9999999999998" height="39" as="geometry">
            <mxRectangle width="349.9999999999998" height="39" as="alternateBounds" />
          </mxGeometry>
        </mxCell>
        <mxCell id="mGK4X3r3w6U-2YkT1dGA-59" style="shape=tableRow;horizontal=0;startSize=0;swimlaneHead=0;swimlaneBody=0;fillColor=none;collapsible=0;dropTarget=0;points=[[0,0.5],[1,0.5]];portConstraint=eastwest;top=0;left=0;right=0;bottom=0;fontSize=16;" vertex="1" parent="mGK4X3r3w6U-2YkT1dGA-1">
          <mxGeometry y="937" width="390" height="39" as="geometry" />
        </mxCell>
        <mxCell id="mGK4X3r3w6U-2YkT1dGA-60" style="shape=partialRectangle;connectable=0;fillColor=none;top=0;left=0;bottom=0;right=0;editable=1;overflow=hidden;whiteSpace=wrap;html=1;fontSize=16;" vertex="1" parent="mGK4X3r3w6U-2YkT1dGA-59">
          <mxGeometry width="40.00000000000023" height="39" as="geometry">
            <mxRectangle width="40.00000000000023" height="39" as="alternateBounds" />
          </mxGeometry>
        </mxCell>
        <mxCell id="mGK4X3r3w6U-2YkT1dGA-61" value="url" style="shape=partialRectangle;connectable=0;fillColor=none;top=0;left=0;bottom=0;right=0;align=left;spacingLeft=6;overflow=hidden;whiteSpace=wrap;html=1;fontSize=16;" vertex="1" parent="mGK4X3r3w6U-2YkT1dGA-59">
          <mxGeometry x="40.00000000000023" width="349.9999999999998" height="39" as="geometry">
            <mxRectangle width="349.9999999999998" height="39" as="alternateBounds" />
          </mxGeometry>
        </mxCell>
        <mxCell id="mGK4X3r3w6U-2YkT1dGA-56" style="shape=tableRow;horizontal=0;startSize=0;swimlaneHead=0;swimlaneBody=0;fillColor=none;collapsible=0;dropTarget=0;points=[[0,0.5],[1,0.5]];portConstraint=eastwest;top=0;left=0;right=0;bottom=0;fontSize=16;" vertex="1" parent="mGK4X3r3w6U-2YkT1dGA-1">
          <mxGeometry y="976" width="390" height="39" as="geometry" />
        </mxCell>
        <mxCell id="mGK4X3r3w6U-2YkT1dGA-57" style="shape=partialRectangle;connectable=0;fillColor=none;top=0;left=0;bottom=0;right=0;editable=1;overflow=hidden;whiteSpace=wrap;html=1;fontSize=16;" vertex="1" parent="mGK4X3r3w6U-2YkT1dGA-56">
          <mxGeometry width="40.00000000000023" height="39" as="geometry">
            <mxRectangle width="40.00000000000023" height="39" as="alternateBounds" />
          </mxGeometry>
        </mxCell>
        <mxCell id="mGK4X3r3w6U-2YkT1dGA-58" value="felt" style="shape=partialRectangle;connectable=0;fillColor=none;top=0;left=0;bottom=0;right=0;align=left;spacingLeft=6;overflow=hidden;whiteSpace=wrap;html=1;fontSize=16;" vertex="1" parent="mGK4X3r3w6U-2YkT1dGA-56">
          <mxGeometry x="40.00000000000023" width="349.9999999999998" height="39" as="geometry">
            <mxRectangle width="349.9999999999998" height="39" as="alternateBounds" />
          </mxGeometry>
        </mxCell>
        <mxCell id="mGK4X3r3w6U-2YkT1dGA-53" style="shape=tableRow;horizontal=0;startSize=0;swimlaneHead=0;swimlaneBody=0;fillColor=none;collapsible=0;dropTarget=0;points=[[0,0.5],[1,0.5]];portConstraint=eastwest;top=0;left=0;right=0;bottom=0;fontSize=16;" vertex="1" parent="mGK4X3r3w6U-2YkT1dGA-1">
          <mxGeometry y="1015" width="390" height="39" as="geometry" />
        </mxCell>
        <mxCell id="mGK4X3r3w6U-2YkT1dGA-54" style="shape=partialRectangle;connectable=0;fillColor=none;top=0;left=0;bottom=0;right=0;editable=1;overflow=hidden;whiteSpace=wrap;html=1;fontSize=16;" vertex="1" parent="mGK4X3r3w6U-2YkT1dGA-53">
          <mxGeometry width="40.00000000000023" height="39" as="geometry">
            <mxRectangle width="40.00000000000023" height="39" as="alternateBounds" />
          </mxGeometry>
        </mxCell>
        <mxCell id="mGK4X3r3w6U-2YkT1dGA-55" value="seismic_significance_score" style="shape=partialRectangle;connectable=0;fillColor=none;top=0;left=0;bottom=0;right=0;align=left;spacingLeft=6;overflow=hidden;whiteSpace=wrap;html=1;fontSize=16;" vertex="1" parent="mGK4X3r3w6U-2YkT1dGA-53">
          <mxGeometry x="40.00000000000023" width="349.9999999999998" height="39" as="geometry">
            <mxRectangle width="349.9999999999998" height="39" as="alternateBounds" />
          </mxGeometry>
        </mxCell>
        <mxCell id="mGK4X3r3w6U-2YkT1dGA-95" style="shape=tableRow;horizontal=0;startSize=0;swimlaneHead=0;swimlaneBody=0;fillColor=none;collapsible=0;dropTarget=0;points=[[0,0.5],[1,0.5]];portConstraint=eastwest;top=0;left=0;right=0;bottom=0;fontSize=16;" vertex="1" parent="mGK4X3r3w6U-2YkT1dGA-1">
          <mxGeometry y="1054" width="390" height="39" as="geometry" />
        </mxCell>
        <mxCell id="mGK4X3r3w6U-2YkT1dGA-96" style="shape=partialRectangle;connectable=0;fillColor=none;top=0;left=0;bottom=0;right=0;editable=1;overflow=hidden;whiteSpace=wrap;html=1;fontSize=16;" vertex="1" parent="mGK4X3r3w6U-2YkT1dGA-95">
          <mxGeometry width="40.00000000000023" height="39" as="geometry">
            <mxRectangle width="40.00000000000023" height="39" as="alternateBounds" />
          </mxGeometry>
        </mxCell>
        <mxCell id="mGK4X3r3w6U-2YkT1dGA-97" value="related_event_ids_list" style="shape=partialRectangle;connectable=0;fillColor=none;top=0;left=0;bottom=0;right=0;align=left;spacingLeft=6;overflow=hidden;whiteSpace=wrap;html=1;fontSize=16;" vertex="1" parent="mGK4X3r3w6U-2YkT1dGA-95">
          <mxGeometry x="40.00000000000023" width="349.9999999999998" height="39" as="geometry">
            <mxRectangle width="349.9999999999998" height="39" as="alternateBounds" />
          </mxGeometry>
        </mxCell>
        <mxCell id="mGK4X3r3w6U-2YkT1dGA-92" style="shape=tableRow;horizontal=0;startSize=0;swimlaneHead=0;swimlaneBody=0;fillColor=none;collapsible=0;dropTarget=0;points=[[0,0.5],[1,0.5]];portConstraint=eastwest;top=0;left=0;right=0;bottom=0;fontSize=16;" vertex="1" parent="mGK4X3r3w6U-2YkT1dGA-1">
          <mxGeometry y="1093" width="390" height="39" as="geometry" />
        </mxCell>
        <mxCell id="mGK4X3r3w6U-2YkT1dGA-93" style="shape=partialRectangle;connectable=0;fillColor=none;top=0;left=0;bottom=0;right=0;editable=1;overflow=hidden;whiteSpace=wrap;html=1;fontSize=16;" vertex="1" parent="mGK4X3r3w6U-2YkT1dGA-92">
          <mxGeometry width="40.00000000000023" height="39" as="geometry">
            <mxRectangle width="40.00000000000023" height="39" as="alternateBounds" />
          </mxGeometry>
        </mxCell>
        <mxCell id="mGK4X3r3w6U-2YkT1dGA-94" value="related_event_sources_list" style="shape=partialRectangle;connectable=0;fillColor=none;top=0;left=0;bottom=0;right=0;align=left;spacingLeft=6;overflow=hidden;whiteSpace=wrap;html=1;fontSize=16;" vertex="1" parent="mGK4X3r3w6U-2YkT1dGA-92">
          <mxGeometry x="40.00000000000023" width="349.9999999999998" height="39" as="geometry">
            <mxRectangle width="349.9999999999998" height="39" as="alternateBounds" />
          </mxGeometry>
        </mxCell>
        <mxCell id="mGK4X3r3w6U-2YkT1dGA-89" style="shape=tableRow;horizontal=0;startSize=0;swimlaneHead=0;swimlaneBody=0;fillColor=none;collapsible=0;dropTarget=0;points=[[0,0.5],[1,0.5]];portConstraint=eastwest;top=0;left=0;right=0;bottom=0;fontSize=16;" vertex="1" parent="mGK4X3r3w6U-2YkT1dGA-1">
          <mxGeometry y="1132" width="390" height="39" as="geometry" />
        </mxCell>
        <mxCell id="mGK4X3r3w6U-2YkT1dGA-90" style="shape=partialRectangle;connectable=0;fillColor=none;top=0;left=0;bottom=0;right=0;editable=1;overflow=hidden;whiteSpace=wrap;html=1;fontSize=16;" vertex="1" parent="mGK4X3r3w6U-2YkT1dGA-89">
          <mxGeometry width="40.00000000000023" height="39" as="geometry">
            <mxRectangle width="40.00000000000023" height="39" as="alternateBounds" />
          </mxGeometry>
        </mxCell>
        <mxCell id="mGK4X3r3w6U-2YkT1dGA-91" value="related_event_types_list" style="shape=partialRectangle;connectable=0;fillColor=none;top=0;left=0;bottom=0;right=0;align=left;spacingLeft=6;overflow=hidden;whiteSpace=wrap;html=1;fontSize=16;" vertex="1" parent="mGK4X3r3w6U-2YkT1dGA-89">
          <mxGeometry x="40.00000000000023" width="349.9999999999998" height="39" as="geometry">
            <mxRectangle width="349.9999999999998" height="39" as="alternateBounds" />
          </mxGeometry>
        </mxCell>
        <mxCell id="mGK4X3r3w6U-2YkT1dGA-86" style="shape=tableRow;horizontal=0;startSize=0;swimlaneHead=0;swimlaneBody=0;fillColor=none;collapsible=0;dropTarget=0;points=[[0,0.5],[1,0.5]];portConstraint=eastwest;top=0;left=0;right=0;bottom=0;fontSize=16;" vertex="1" parent="mGK4X3r3w6U-2YkT1dGA-1">
          <mxGeometry y="1171" width="390" height="39" as="geometry" />
        </mxCell>
        <mxCell id="mGK4X3r3w6U-2YkT1dGA-87" style="shape=partialRectangle;connectable=0;fillColor=none;top=0;left=0;bottom=0;right=0;editable=1;overflow=hidden;whiteSpace=wrap;html=1;fontSize=16;" vertex="1" parent="mGK4X3r3w6U-2YkT1dGA-86">
          <mxGeometry width="40.00000000000023" height="39" as="geometry">
            <mxRectangle width="40.00000000000023" height="39" as="alternateBounds" />
          </mxGeometry>
        </mxCell>
        <mxCell id="mGK4X3r3w6U-2YkT1dGA-88" value="timezone_offset_hours" style="shape=partialRectangle;connectable=0;fillColor=none;top=0;left=0;bottom=0;right=0;align=left;spacingLeft=6;overflow=hidden;whiteSpace=wrap;html=1;fontSize=16;" vertex="1" parent="mGK4X3r3w6U-2YkT1dGA-86">
          <mxGeometry x="40.00000000000023" width="349.9999999999998" height="39" as="geometry">
            <mxRectangle width="349.9999999999998" height="39" as="alternateBounds" />
          </mxGeometry>
        </mxCell>
        <mxCell id="mGK4X3r3w6U-2YkT1dGA-83" style="shape=tableRow;horizontal=0;startSize=0;swimlaneHead=0;swimlaneBody=0;fillColor=none;collapsible=0;dropTarget=0;points=[[0,0.5],[1,0.5]];portConstraint=eastwest;top=0;left=0;right=0;bottom=0;fontSize=16;" vertex="1" parent="mGK4X3r3w6U-2YkT1dGA-1">
          <mxGeometry y="1210" width="390" height="39" as="geometry" />
        </mxCell>
        <mxCell id="mGK4X3r3w6U-2YkT1dGA-84" style="shape=partialRectangle;connectable=0;fillColor=none;top=0;left=0;bottom=0;right=0;editable=1;overflow=hidden;whiteSpace=wrap;html=1;fontSize=16;" vertex="1" parent="mGK4X3r3w6U-2YkT1dGA-83">
          <mxGeometry width="40.00000000000023" height="39" as="geometry">
            <mxRectangle width="40.00000000000023" height="39" as="alternateBounds" />
          </mxGeometry>
        </mxCell>
        <mxCell id="mGK4X3r3w6U-2YkT1dGA-85" value="time_utc" style="shape=partialRectangle;connectable=0;fillColor=none;top=0;left=0;bottom=0;right=0;align=left;spacingLeft=6;overflow=hidden;whiteSpace=wrap;html=1;fontSize=16;" vertex="1" parent="mGK4X3r3w6U-2YkT1dGA-83">
          <mxGeometry x="40.00000000000023" width="349.9999999999998" height="39" as="geometry">
            <mxRectangle width="349.9999999999998" height="39" as="alternateBounds" />
          </mxGeometry>
        </mxCell>
        <mxCell id="mGK4X3r3w6U-2YkT1dGA-101" style="shape=tableRow;horizontal=0;startSize=0;swimlaneHead=0;swimlaneBody=0;fillColor=none;collapsible=0;dropTarget=0;points=[[0,0.5],[1,0.5]];portConstraint=eastwest;top=0;left=0;right=0;bottom=0;fontSize=16;" vertex="1" parent="mGK4X3r3w6U-2YkT1dGA-1">
          <mxGeometry y="1249" width="390" height="39" as="geometry" />
        </mxCell>
        <mxCell id="mGK4X3r3w6U-2YkT1dGA-102" style="shape=partialRectangle;connectable=0;fillColor=none;top=0;left=0;bottom=0;right=0;editable=1;overflow=hidden;whiteSpace=wrap;html=1;fontSize=16;" vertex="1" parent="mGK4X3r3w6U-2YkT1dGA-101">
          <mxGeometry width="40.00000000000023" height="39" as="geometry">
            <mxRectangle width="40.00000000000023" height="39" as="alternateBounds" />
          </mxGeometry>
        </mxCell>
        <mxCell id="mGK4X3r3w6U-2YkT1dGA-103" value="hour_of_day" style="shape=partialRectangle;connectable=0;fillColor=none;top=0;left=0;bottom=0;right=0;align=left;spacingLeft=6;overflow=hidden;whiteSpace=wrap;html=1;fontSize=16;" vertex="1" parent="mGK4X3r3w6U-2YkT1dGA-101">
          <mxGeometry x="40.00000000000023" width="349.9999999999998" height="39" as="geometry">
            <mxRectangle width="349.9999999999998" height="39" as="alternateBounds" />
          </mxGeometry>
        </mxCell>
        <mxCell id="mGK4X3r3w6U-2YkT1dGA-98" style="shape=tableRow;horizontal=0;startSize=0;swimlaneHead=0;swimlaneBody=0;fillColor=none;collapsible=0;dropTarget=0;points=[[0,0.5],[1,0.5]];portConstraint=eastwest;top=0;left=0;right=0;bottom=0;fontSize=16;" vertex="1" parent="mGK4X3r3w6U-2YkT1dGA-1">
          <mxGeometry y="1288" width="390" height="39" as="geometry" />
        </mxCell>
        <mxCell id="mGK4X3r3w6U-2YkT1dGA-99" style="shape=partialRectangle;connectable=0;fillColor=none;top=0;left=0;bottom=0;right=0;editable=1;overflow=hidden;whiteSpace=wrap;html=1;fontSize=16;" vertex="1" parent="mGK4X3r3w6U-2YkT1dGA-98">
          <mxGeometry width="40.00000000000023" height="39" as="geometry">
            <mxRectangle width="40.00000000000023" height="39" as="alternateBounds" />
          </mxGeometry>
        </mxCell>
        <mxCell id="mGK4X3r3w6U-2YkT1dGA-100" value="updated_utc" style="shape=partialRectangle;connectable=0;fillColor=none;top=0;left=0;bottom=0;right=0;align=left;spacingLeft=6;overflow=hidden;whiteSpace=wrap;html=1;fontSize=16;" vertex="1" parent="mGK4X3r3w6U-2YkT1dGA-98">
          <mxGeometry x="40.00000000000023" width="349.9999999999998" height="39" as="geometry">
            <mxRectangle width="349.9999999999998" height="39" as="alternateBounds" />
          </mxGeometry>
        </mxCell>
        <mxCell id="mGK4X3r3w6U-2YkT1dGA-30" value="&lt;font&gt;&lt;b&gt;Earthquake Data Mart&lt;/b&gt;&lt;/font&gt; &lt;font style=&quot;font-size: 20px;&quot;&gt;(Star Schema)&lt;/font&gt;" style="text;html=1;align=center;verticalAlign=middle;whiteSpace=wrap;rounded=0;fontSize=36;" vertex="1" parent="1">
          <mxGeometry x="60" y="40" width="560" height="30" as="geometry" />
        </mxCell>
        <mxCell id="mGK4X3r3w6U-2YkT1dGA-104" value="gold.dim_alert" style="shape=table;startSize=40;container=1;collapsible=1;childLayout=tableLayout;fixedRows=1;rowLines=0;fontStyle=1;align=center;resizeLast=1;html=1;rounded=1;fillColor=#fff2cc;strokeColor=#d6b656;fontSize=16;" vertex="1" parent="1">
          <mxGeometry x="60" y="150" width="200" height="118" as="geometry" />
        </mxCell>
        <mxCell id="mGK4X3r3w6U-2YkT1dGA-105" value="" style="shape=tableRow;horizontal=0;startSize=0;swimlaneHead=0;swimlaneBody=0;fillColor=none;collapsible=0;dropTarget=0;points=[[0,0.5],[1,0.5]];portConstraint=eastwest;top=0;left=0;right=0;bottom=1;fontSize=16;" vertex="1" parent="mGK4X3r3w6U-2YkT1dGA-104">
          <mxGeometry y="40" width="200" height="39" as="geometry" />
        </mxCell>
        <mxCell id="mGK4X3r3w6U-2YkT1dGA-106" value="PK" style="shape=partialRectangle;connectable=0;fillColor=none;top=0;left=0;bottom=0;right=0;fontStyle=1;overflow=hidden;whiteSpace=wrap;html=1;fontSize=16;" vertex="1" parent="mGK4X3r3w6U-2YkT1dGA-105">
          <mxGeometry width="30" height="39" as="geometry">
            <mxRectangle width="30" height="39" as="alternateBounds" />
          </mxGeometry>
        </mxCell>
        <mxCell id="mGK4X3r3w6U-2YkT1dGA-107" value="alert_key" style="shape=partialRectangle;connectable=0;fillColor=none;top=0;left=0;bottom=0;right=0;align=left;spacingLeft=6;fontStyle=5;overflow=hidden;whiteSpace=wrap;html=1;fontSize=16;" vertex="1" parent="mGK4X3r3w6U-2YkT1dGA-105">
          <mxGeometry x="30" width="170" height="39" as="geometry">
            <mxRectangle width="170" height="39" as="alternateBounds" />
          </mxGeometry>
        </mxCell>
        <mxCell id="mGK4X3r3w6U-2YkT1dGA-108" value="" style="shape=tableRow;horizontal=0;startSize=0;swimlaneHead=0;swimlaneBody=0;fillColor=none;collapsible=0;dropTarget=0;points=[[0,0.5],[1,0.5]];portConstraint=eastwest;top=0;left=0;right=0;bottom=0;fontSize=16;" vertex="1" parent="mGK4X3r3w6U-2YkT1dGA-104">
          <mxGeometry y="79" width="200" height="39" as="geometry" />
        </mxCell>
        <mxCell id="mGK4X3r3w6U-2YkT1dGA-109" value="" style="shape=partialRectangle;connectable=0;fillColor=none;top=0;left=0;bottom=0;right=0;editable=1;overflow=hidden;whiteSpace=wrap;html=1;fontSize=16;" vertex="1" parent="mGK4X3r3w6U-2YkT1dGA-108">
          <mxGeometry width="30" height="39" as="geometry">
            <mxRectangle width="30" height="39" as="alternateBounds" />
          </mxGeometry>
        </mxCell>
        <mxCell id="mGK4X3r3w6U-2YkT1dGA-110" value="alert_name" style="shape=partialRectangle;connectable=0;fillColor=none;top=0;left=0;bottom=0;right=0;align=left;spacingLeft=6;overflow=hidden;whiteSpace=wrap;html=1;fontSize=16;" vertex="1" parent="mGK4X3r3w6U-2YkT1dGA-108">
          <mxGeometry x="30" width="170" height="39" as="geometry">
            <mxRectangle width="170" height="39" as="alternateBounds" />
          </mxGeometry>
        </mxCell>
        <mxCell id="mGK4X3r3w6U-2YkT1dGA-135" value="gold.dim_date" style="shape=table;startSize=40;container=1;collapsible=1;childLayout=tableLayout;fixedRows=1;rowLines=0;fontStyle=1;align=center;resizeLast=1;html=1;rounded=1;fillColor=#fff2cc;strokeColor=#d6b656;fontSize=16;" vertex="1" parent="1">
          <mxGeometry x="60" y="360" width="200" height="508" as="geometry" />
        </mxCell>
        <mxCell id="mGK4X3r3w6U-2YkT1dGA-136" value="" style="shape=tableRow;horizontal=0;startSize=0;swimlaneHead=0;swimlaneBody=0;fillColor=none;collapsible=0;dropTarget=0;points=[[0,0.5],[1,0.5]];portConstraint=eastwest;top=0;left=0;right=0;bottom=1;fontSize=16;" vertex="1" parent="mGK4X3r3w6U-2YkT1dGA-135">
          <mxGeometry y="40" width="200" height="39" as="geometry" />
        </mxCell>
        <mxCell id="mGK4X3r3w6U-2YkT1dGA-137" value="PK" style="shape=partialRectangle;connectable=0;fillColor=none;top=0;left=0;bottom=0;right=0;fontStyle=1;overflow=hidden;whiteSpace=wrap;html=1;fontSize=16;" vertex="1" parent="mGK4X3r3w6U-2YkT1dGA-136">
          <mxGeometry width="30" height="39" as="geometry">
            <mxRectangle width="30" height="39" as="alternateBounds" />
          </mxGeometry>
        </mxCell>
        <mxCell id="mGK4X3r3w6U-2YkT1dGA-138" value="date_key" style="shape=partialRectangle;connectable=0;fillColor=none;top=0;left=0;bottom=0;right=0;align=left;spacingLeft=6;fontStyle=5;overflow=hidden;whiteSpace=wrap;html=1;fontSize=16;" vertex="1" parent="mGK4X3r3w6U-2YkT1dGA-136">
          <mxGeometry x="30" width="170" height="39" as="geometry">
            <mxRectangle width="170" height="39" as="alternateBounds" />
          </mxGeometry>
        </mxCell>
        <mxCell id="mGK4X3r3w6U-2YkT1dGA-139" value="" style="shape=tableRow;horizontal=0;startSize=0;swimlaneHead=0;swimlaneBody=0;fillColor=none;collapsible=0;dropTarget=0;points=[[0,0.5],[1,0.5]];portConstraint=eastwest;top=0;left=0;right=0;bottom=0;fontSize=16;" vertex="1" parent="mGK4X3r3w6U-2YkT1dGA-135">
          <mxGeometry y="79" width="200" height="39" as="geometry" />
        </mxCell>
        <mxCell id="mGK4X3r3w6U-2YkT1dGA-140" value="" style="shape=partialRectangle;connectable=0;fillColor=none;top=0;left=0;bottom=0;right=0;editable=1;overflow=hidden;whiteSpace=wrap;html=1;fontSize=16;" vertex="1" parent="mGK4X3r3w6U-2YkT1dGA-139">
          <mxGeometry width="30" height="39" as="geometry">
            <mxRectangle width="30" height="39" as="alternateBounds" />
          </mxGeometry>
        </mxCell>
        <mxCell id="mGK4X3r3w6U-2YkT1dGA-141" value="full_date" style="shape=partialRectangle;connectable=0;fillColor=none;top=0;left=0;bottom=0;right=0;align=left;spacingLeft=6;overflow=hidden;whiteSpace=wrap;html=1;fontSize=16;" vertex="1" parent="mGK4X3r3w6U-2YkT1dGA-139">
          <mxGeometry x="30" width="170" height="39" as="geometry">
            <mxRectangle width="170" height="39" as="alternateBounds" />
          </mxGeometry>
        </mxCell>
        <mxCell id="mGK4X3r3w6U-2YkT1dGA-163" style="shape=tableRow;horizontal=0;startSize=0;swimlaneHead=0;swimlaneBody=0;fillColor=none;collapsible=0;dropTarget=0;points=[[0,0.5],[1,0.5]];portConstraint=eastwest;top=0;left=0;right=0;bottom=0;fontSize=16;" vertex="1" parent="mGK4X3r3w6U-2YkT1dGA-135">
          <mxGeometry y="118" width="200" height="39" as="geometry" />
        </mxCell>
        <mxCell id="mGK4X3r3w6U-2YkT1dGA-164" style="shape=partialRectangle;connectable=0;fillColor=none;top=0;left=0;bottom=0;right=0;editable=1;overflow=hidden;whiteSpace=wrap;html=1;fontSize=16;" vertex="1" parent="mGK4X3r3w6U-2YkT1dGA-163">
          <mxGeometry width="30" height="39" as="geometry">
            <mxRectangle width="30" height="39" as="alternateBounds" />
          </mxGeometry>
        </mxCell>
        <mxCell id="mGK4X3r3w6U-2YkT1dGA-165" value="date_day" style="shape=partialRectangle;connectable=0;fillColor=none;top=0;left=0;bottom=0;right=0;align=left;spacingLeft=6;overflow=hidden;whiteSpace=wrap;html=1;fontSize=16;" vertex="1" parent="mGK4X3r3w6U-2YkT1dGA-163">
          <mxGeometry x="30" width="170" height="39" as="geometry">
            <mxRectangle width="170" height="39" as="alternateBounds" />
          </mxGeometry>
        </mxCell>
        <mxCell id="mGK4X3r3w6U-2YkT1dGA-166" style="shape=tableRow;horizontal=0;startSize=0;swimlaneHead=0;swimlaneBody=0;fillColor=none;collapsible=0;dropTarget=0;points=[[0,0.5],[1,0.5]];portConstraint=eastwest;top=0;left=0;right=0;bottom=0;fontSize=16;" vertex="1" parent="mGK4X3r3w6U-2YkT1dGA-135">
          <mxGeometry y="157" width="200" height="39" as="geometry" />
        </mxCell>
        <mxCell id="mGK4X3r3w6U-2YkT1dGA-167" style="shape=partialRectangle;connectable=0;fillColor=none;top=0;left=0;bottom=0;right=0;editable=1;overflow=hidden;whiteSpace=wrap;html=1;fontSize=16;" vertex="1" parent="mGK4X3r3w6U-2YkT1dGA-166">
          <mxGeometry width="30" height="39" as="geometry">
            <mxRectangle width="30" height="39" as="alternateBounds" />
          </mxGeometry>
        </mxCell>
        <mxCell id="mGK4X3r3w6U-2YkT1dGA-168" value="date_month" style="shape=partialRectangle;connectable=0;fillColor=none;top=0;left=0;bottom=0;right=0;align=left;spacingLeft=6;overflow=hidden;whiteSpace=wrap;html=1;fontSize=16;" vertex="1" parent="mGK4X3r3w6U-2YkT1dGA-166">
          <mxGeometry x="30" width="170" height="39" as="geometry">
            <mxRectangle width="170" height="39" as="alternateBounds" />
          </mxGeometry>
        </mxCell>
        <mxCell id="mGK4X3r3w6U-2YkT1dGA-160" style="shape=tableRow;horizontal=0;startSize=0;swimlaneHead=0;swimlaneBody=0;fillColor=none;collapsible=0;dropTarget=0;points=[[0,0.5],[1,0.5]];portConstraint=eastwest;top=0;left=0;right=0;bottom=0;fontSize=16;" vertex="1" parent="mGK4X3r3w6U-2YkT1dGA-135">
          <mxGeometry y="196" width="200" height="39" as="geometry" />
        </mxCell>
        <mxCell id="mGK4X3r3w6U-2YkT1dGA-161" style="shape=partialRectangle;connectable=0;fillColor=none;top=0;left=0;bottom=0;right=0;editable=1;overflow=hidden;whiteSpace=wrap;html=1;fontSize=16;" vertex="1" parent="mGK4X3r3w6U-2YkT1dGA-160">
          <mxGeometry width="30" height="39" as="geometry">
            <mxRectangle width="30" height="39" as="alternateBounds" />
          </mxGeometry>
        </mxCell>
        <mxCell id="mGK4X3r3w6U-2YkT1dGA-162" value="month_name" style="shape=partialRectangle;connectable=0;fillColor=none;top=0;left=0;bottom=0;right=0;align=left;spacingLeft=6;overflow=hidden;whiteSpace=wrap;html=1;fontSize=16;" vertex="1" parent="mGK4X3r3w6U-2YkT1dGA-160">
          <mxGeometry x="30" width="170" height="39" as="geometry">
            <mxRectangle width="170" height="39" as="alternateBounds" />
          </mxGeometry>
        </mxCell>
        <mxCell id="mGK4X3r3w6U-2YkT1dGA-157" style="shape=tableRow;horizontal=0;startSize=0;swimlaneHead=0;swimlaneBody=0;fillColor=none;collapsible=0;dropTarget=0;points=[[0,0.5],[1,0.5]];portConstraint=eastwest;top=0;left=0;right=0;bottom=0;fontSize=16;" vertex="1" parent="mGK4X3r3w6U-2YkT1dGA-135">
          <mxGeometry y="235" width="200" height="39" as="geometry" />
        </mxCell>
        <mxCell id="mGK4X3r3w6U-2YkT1dGA-158" style="shape=partialRectangle;connectable=0;fillColor=none;top=0;left=0;bottom=0;right=0;editable=1;overflow=hidden;whiteSpace=wrap;html=1;fontSize=16;" vertex="1" parent="mGK4X3r3w6U-2YkT1dGA-157">
          <mxGeometry width="30" height="39" as="geometry">
            <mxRectangle width="30" height="39" as="alternateBounds" />
          </mxGeometry>
        </mxCell>
        <mxCell id="mGK4X3r3w6U-2YkT1dGA-159" value="date_year" style="shape=partialRectangle;connectable=0;fillColor=none;top=0;left=0;bottom=0;right=0;align=left;spacingLeft=6;overflow=hidden;whiteSpace=wrap;html=1;fontSize=16;" vertex="1" parent="mGK4X3r3w6U-2YkT1dGA-157">
          <mxGeometry x="30" width="170" height="39" as="geometry">
            <mxRectangle width="170" height="39" as="alternateBounds" />
          </mxGeometry>
        </mxCell>
        <mxCell id="mGK4X3r3w6U-2YkT1dGA-154" style="shape=tableRow;horizontal=0;startSize=0;swimlaneHead=0;swimlaneBody=0;fillColor=none;collapsible=0;dropTarget=0;points=[[0,0.5],[1,0.5]];portConstraint=eastwest;top=0;left=0;right=0;bottom=0;fontSize=16;" vertex="1" parent="mGK4X3r3w6U-2YkT1dGA-135">
          <mxGeometry y="274" width="200" height="39" as="geometry" />
        </mxCell>
        <mxCell id="mGK4X3r3w6U-2YkT1dGA-155" style="shape=partialRectangle;connectable=0;fillColor=none;top=0;left=0;bottom=0;right=0;editable=1;overflow=hidden;whiteSpace=wrap;html=1;fontSize=16;" vertex="1" parent="mGK4X3r3w6U-2YkT1dGA-154">
          <mxGeometry width="30" height="39" as="geometry">
            <mxRectangle width="30" height="39" as="alternateBounds" />
          </mxGeometry>
        </mxCell>
        <mxCell id="mGK4X3r3w6U-2YkT1dGA-156" value="day_of_week" style="shape=partialRectangle;connectable=0;fillColor=none;top=0;left=0;bottom=0;right=0;align=left;spacingLeft=6;overflow=hidden;whiteSpace=wrap;html=1;fontSize=16;" vertex="1" parent="mGK4X3r3w6U-2YkT1dGA-154">
          <mxGeometry x="30" width="170" height="39" as="geometry">
            <mxRectangle width="170" height="39" as="alternateBounds" />
          </mxGeometry>
        </mxCell>
        <mxCell id="mGK4X3r3w6U-2YkT1dGA-151" style="shape=tableRow;horizontal=0;startSize=0;swimlaneHead=0;swimlaneBody=0;fillColor=none;collapsible=0;dropTarget=0;points=[[0,0.5],[1,0.5]];portConstraint=eastwest;top=0;left=0;right=0;bottom=0;fontSize=16;" vertex="1" parent="mGK4X3r3w6U-2YkT1dGA-135">
          <mxGeometry y="313" width="200" height="39" as="geometry" />
        </mxCell>
        <mxCell id="mGK4X3r3w6U-2YkT1dGA-152" style="shape=partialRectangle;connectable=0;fillColor=none;top=0;left=0;bottom=0;right=0;editable=1;overflow=hidden;whiteSpace=wrap;html=1;fontSize=16;" vertex="1" parent="mGK4X3r3w6U-2YkT1dGA-151">
          <mxGeometry width="30" height="39" as="geometry">
            <mxRectangle width="30" height="39" as="alternateBounds" />
          </mxGeometry>
        </mxCell>
        <mxCell id="mGK4X3r3w6U-2YkT1dGA-153" value="day_name" style="shape=partialRectangle;connectable=0;fillColor=none;top=0;left=0;bottom=0;right=0;align=left;spacingLeft=6;overflow=hidden;whiteSpace=wrap;html=1;fontSize=16;" vertex="1" parent="mGK4X3r3w6U-2YkT1dGA-151">
          <mxGeometry x="30" width="170" height="39" as="geometry">
            <mxRectangle width="170" height="39" as="alternateBounds" />
          </mxGeometry>
        </mxCell>
        <mxCell id="mGK4X3r3w6U-2YkT1dGA-148" style="shape=tableRow;horizontal=0;startSize=0;swimlaneHead=0;swimlaneBody=0;fillColor=none;collapsible=0;dropTarget=0;points=[[0,0.5],[1,0.5]];portConstraint=eastwest;top=0;left=0;right=0;bottom=0;fontSize=16;" vertex="1" parent="mGK4X3r3w6U-2YkT1dGA-135">
          <mxGeometry y="352" width="200" height="39" as="geometry" />
        </mxCell>
        <mxCell id="mGK4X3r3w6U-2YkT1dGA-149" style="shape=partialRectangle;connectable=0;fillColor=none;top=0;left=0;bottom=0;right=0;editable=1;overflow=hidden;whiteSpace=wrap;html=1;fontSize=16;" vertex="1" parent="mGK4X3r3w6U-2YkT1dGA-148">
          <mxGeometry width="30" height="39" as="geometry">
            <mxRectangle width="30" height="39" as="alternateBounds" />
          </mxGeometry>
        </mxCell>
        <mxCell id="mGK4X3r3w6U-2YkT1dGA-150" value="day_of_year" style="shape=partialRectangle;connectable=0;fillColor=none;top=0;left=0;bottom=0;right=0;align=left;spacingLeft=6;overflow=hidden;whiteSpace=wrap;html=1;fontSize=16;" vertex="1" parent="mGK4X3r3w6U-2YkT1dGA-148">
          <mxGeometry x="30" width="170" height="39" as="geometry">
            <mxRectangle width="170" height="39" as="alternateBounds" />
          </mxGeometry>
        </mxCell>
        <mxCell id="mGK4X3r3w6U-2YkT1dGA-145" style="shape=tableRow;horizontal=0;startSize=0;swimlaneHead=0;swimlaneBody=0;fillColor=none;collapsible=0;dropTarget=0;points=[[0,0.5],[1,0.5]];portConstraint=eastwest;top=0;left=0;right=0;bottom=0;fontSize=16;" vertex="1" parent="mGK4X3r3w6U-2YkT1dGA-135">
          <mxGeometry y="391" width="200" height="39" as="geometry" />
        </mxCell>
        <mxCell id="mGK4X3r3w6U-2YkT1dGA-146" style="shape=partialRectangle;connectable=0;fillColor=none;top=0;left=0;bottom=0;right=0;editable=1;overflow=hidden;whiteSpace=wrap;html=1;fontSize=16;" vertex="1" parent="mGK4X3r3w6U-2YkT1dGA-145">
          <mxGeometry width="30" height="39" as="geometry">
            <mxRectangle width="30" height="39" as="alternateBounds" />
          </mxGeometry>
        </mxCell>
        <mxCell id="mGK4X3r3w6U-2YkT1dGA-147" value="week_of_year" style="shape=partialRectangle;connectable=0;fillColor=none;top=0;left=0;bottom=0;right=0;align=left;spacingLeft=6;overflow=hidden;whiteSpace=wrap;html=1;fontSize=16;" vertex="1" parent="mGK4X3r3w6U-2YkT1dGA-145">
          <mxGeometry x="30" width="170" height="39" as="geometry">
            <mxRectangle width="170" height="39" as="alternateBounds" />
          </mxGeometry>
        </mxCell>
        <mxCell id="mGK4X3r3w6U-2YkT1dGA-142" style="shape=tableRow;horizontal=0;startSize=0;swimlaneHead=0;swimlaneBody=0;fillColor=none;collapsible=0;dropTarget=0;points=[[0,0.5],[1,0.5]];portConstraint=eastwest;top=0;left=0;right=0;bottom=0;fontSize=16;" vertex="1" parent="mGK4X3r3w6U-2YkT1dGA-135">
          <mxGeometry y="430" width="200" height="39" as="geometry" />
        </mxCell>
        <mxCell id="mGK4X3r3w6U-2YkT1dGA-143" style="shape=partialRectangle;connectable=0;fillColor=none;top=0;left=0;bottom=0;right=0;editable=1;overflow=hidden;whiteSpace=wrap;html=1;fontSize=16;" vertex="1" parent="mGK4X3r3w6U-2YkT1dGA-142">
          <mxGeometry width="30" height="39" as="geometry">
            <mxRectangle width="30" height="39" as="alternateBounds" />
          </mxGeometry>
        </mxCell>
        <mxCell id="mGK4X3r3w6U-2YkT1dGA-144" value="quarter_of_year" style="shape=partialRectangle;connectable=0;fillColor=none;top=0;left=0;bottom=0;right=0;align=left;spacingLeft=6;overflow=hidden;whiteSpace=wrap;html=1;fontSize=16;" vertex="1" parent="mGK4X3r3w6U-2YkT1dGA-142">
          <mxGeometry x="30" width="170" height="39" as="geometry">
            <mxRectangle width="170" height="39" as="alternateBounds" />
          </mxGeometry>
        </mxCell>
        <mxCell id="mGK4X3r3w6U-2YkT1dGA-169" style="shape=tableRow;horizontal=0;startSize=0;swimlaneHead=0;swimlaneBody=0;fillColor=none;collapsible=0;dropTarget=0;points=[[0,0.5],[1,0.5]];portConstraint=eastwest;top=0;left=0;right=0;bottom=0;fontSize=16;" vertex="1" parent="mGK4X3r3w6U-2YkT1dGA-135">
          <mxGeometry y="469" width="200" height="39" as="geometry" />
        </mxCell>
        <mxCell id="mGK4X3r3w6U-2YkT1dGA-170" style="shape=partialRectangle;connectable=0;fillColor=none;top=0;left=0;bottom=0;right=0;editable=1;overflow=hidden;whiteSpace=wrap;html=1;fontSize=16;" vertex="1" parent="mGK4X3r3w6U-2YkT1dGA-169">
          <mxGeometry width="30" height="39" as="geometry">
            <mxRectangle width="30" height="39" as="alternateBounds" />
          </mxGeometry>
        </mxCell>
        <mxCell id="mGK4X3r3w6U-2YkT1dGA-171" value="is_weekend" style="shape=partialRectangle;connectable=0;fillColor=none;top=0;left=0;bottom=0;right=0;align=left;spacingLeft=6;overflow=hidden;whiteSpace=wrap;html=1;fontSize=16;" vertex="1" parent="mGK4X3r3w6U-2YkT1dGA-169">
          <mxGeometry x="30" width="170" height="39" as="geometry">
            <mxRectangle width="170" height="39" as="alternateBounds" />
          </mxGeometry>
        </mxCell>
        <mxCell id="mGK4X3r3w6U-2YkT1dGA-172" value="gold.dim_event_type" style="shape=table;startSize=40;container=1;collapsible=1;childLayout=tableLayout;fixedRows=1;rowLines=0;fontStyle=1;align=center;resizeLast=1;html=1;rounded=1;fillColor=#fff2cc;strokeColor=#d6b656;fontSize=16;" vertex="1" parent="1">
          <mxGeometry x="880" y="150" width="200" height="118" as="geometry" />
        </mxCell>
        <mxCell id="mGK4X3r3w6U-2YkT1dGA-173" value="" style="shape=tableRow;horizontal=0;startSize=0;swimlaneHead=0;swimlaneBody=0;fillColor=none;collapsible=0;dropTarget=0;points=[[0,0.5],[1,0.5]];portConstraint=eastwest;top=0;left=0;right=0;bottom=1;fontSize=16;" vertex="1" parent="mGK4X3r3w6U-2YkT1dGA-172">
          <mxGeometry y="40" width="200" height="39" as="geometry" />
        </mxCell>
        <mxCell id="mGK4X3r3w6U-2YkT1dGA-174" value="PK" style="shape=partialRectangle;connectable=0;fillColor=none;top=0;left=0;bottom=0;right=0;fontStyle=1;overflow=hidden;whiteSpace=wrap;html=1;fontSize=16;" vertex="1" parent="mGK4X3r3w6U-2YkT1dGA-173">
          <mxGeometry width="30" height="39" as="geometry">
            <mxRectangle width="30" height="39" as="alternateBounds" />
          </mxGeometry>
        </mxCell>
        <mxCell id="mGK4X3r3w6U-2YkT1dGA-175" value="event_type_key" style="shape=partialRectangle;connectable=0;fillColor=none;top=0;left=0;bottom=0;right=0;align=left;spacingLeft=6;fontStyle=5;overflow=hidden;whiteSpace=wrap;html=1;fontSize=16;" vertex="1" parent="mGK4X3r3w6U-2YkT1dGA-173">
          <mxGeometry x="30" width="170" height="39" as="geometry">
            <mxRectangle width="170" height="39" as="alternateBounds" />
          </mxGeometry>
        </mxCell>
        <mxCell id="mGK4X3r3w6U-2YkT1dGA-176" value="" style="shape=tableRow;horizontal=0;startSize=0;swimlaneHead=0;swimlaneBody=0;fillColor=none;collapsible=0;dropTarget=0;points=[[0,0.5],[1,0.5]];portConstraint=eastwest;top=0;left=0;right=0;bottom=0;fontSize=16;" vertex="1" parent="mGK4X3r3w6U-2YkT1dGA-172">
          <mxGeometry y="79" width="200" height="39" as="geometry" />
        </mxCell>
        <mxCell id="mGK4X3r3w6U-2YkT1dGA-177" value="" style="shape=partialRectangle;connectable=0;fillColor=none;top=0;left=0;bottom=0;right=0;editable=1;overflow=hidden;whiteSpace=wrap;html=1;fontSize=16;" vertex="1" parent="mGK4X3r3w6U-2YkT1dGA-176">
          <mxGeometry width="30" height="39" as="geometry">
            <mxRectangle width="30" height="39" as="alternateBounds" />
          </mxGeometry>
        </mxCell>
        <mxCell id="mGK4X3r3w6U-2YkT1dGA-178" value="event_type_name" style="shape=partialRectangle;connectable=0;fillColor=none;top=0;left=0;bottom=0;right=0;align=left;spacingLeft=6;overflow=hidden;whiteSpace=wrap;html=1;fontSize=16;" vertex="1" parent="mGK4X3r3w6U-2YkT1dGA-176">
          <mxGeometry x="30" width="170" height="39" as="geometry">
            <mxRectangle width="170" height="39" as="alternateBounds" />
          </mxGeometry>
        </mxCell>
        <mxCell id="mGK4X3r3w6U-2YkT1dGA-179" value="gold.dim_magnitude_method" style="shape=table;startSize=40;container=1;collapsible=1;childLayout=tableLayout;fixedRows=1;rowLines=0;fontStyle=1;align=center;resizeLast=1;html=1;rounded=1;fillColor=#fff2cc;strokeColor=#d6b656;fontSize=16;" vertex="1" parent="1">
          <mxGeometry x="840" y="330" width="290" height="118" as="geometry" />
        </mxCell>
        <mxCell id="mGK4X3r3w6U-2YkT1dGA-180" value="" style="shape=tableRow;horizontal=0;startSize=0;swimlaneHead=0;swimlaneBody=0;fillColor=none;collapsible=0;dropTarget=0;points=[[0,0.5],[1,0.5]];portConstraint=eastwest;top=0;left=0;right=0;bottom=1;fontSize=16;" vertex="1" parent="mGK4X3r3w6U-2YkT1dGA-179">
          <mxGeometry y="40" width="290" height="39" as="geometry" />
        </mxCell>
        <mxCell id="mGK4X3r3w6U-2YkT1dGA-181" value="PK" style="shape=partialRectangle;connectable=0;fillColor=none;top=0;left=0;bottom=0;right=0;fontStyle=1;overflow=hidden;whiteSpace=wrap;html=1;fontSize=16;" vertex="1" parent="mGK4X3r3w6U-2YkT1dGA-180">
          <mxGeometry width="30" height="39" as="geometry">
            <mxRectangle width="30" height="39" as="alternateBounds" />
          </mxGeometry>
        </mxCell>
        <mxCell id="mGK4X3r3w6U-2YkT1dGA-182" value="magnitude_method_key" style="shape=partialRectangle;connectable=0;fillColor=none;top=0;left=0;bottom=0;right=0;align=left;spacingLeft=6;fontStyle=5;overflow=hidden;whiteSpace=wrap;html=1;fontSize=16;" vertex="1" parent="mGK4X3r3w6U-2YkT1dGA-180">
          <mxGeometry x="30" width="260" height="39" as="geometry">
            <mxRectangle width="260" height="39" as="alternateBounds" />
          </mxGeometry>
        </mxCell>
        <mxCell id="mGK4X3r3w6U-2YkT1dGA-183" value="" style="shape=tableRow;horizontal=0;startSize=0;swimlaneHead=0;swimlaneBody=0;fillColor=none;collapsible=0;dropTarget=0;points=[[0,0.5],[1,0.5]];portConstraint=eastwest;top=0;left=0;right=0;bottom=0;fontSize=16;" vertex="1" parent="mGK4X3r3w6U-2YkT1dGA-179">
          <mxGeometry y="79" width="290" height="39" as="geometry" />
        </mxCell>
        <mxCell id="mGK4X3r3w6U-2YkT1dGA-184" value="" style="shape=partialRectangle;connectable=0;fillColor=none;top=0;left=0;bottom=0;right=0;editable=1;overflow=hidden;whiteSpace=wrap;html=1;fontSize=16;" vertex="1" parent="mGK4X3r3w6U-2YkT1dGA-183">
          <mxGeometry width="30" height="39" as="geometry">
            <mxRectangle width="30" height="39" as="alternateBounds" />
          </mxGeometry>
        </mxCell>
        <mxCell id="mGK4X3r3w6U-2YkT1dGA-185" value="magnitude_method_name" style="shape=partialRectangle;connectable=0;fillColor=none;top=0;left=0;bottom=0;right=0;align=left;spacingLeft=6;overflow=hidden;whiteSpace=wrap;html=1;fontSize=16;" vertex="1" parent="mGK4X3r3w6U-2YkT1dGA-183">
          <mxGeometry x="30" width="260" height="39" as="geometry">
            <mxRectangle width="260" height="39" as="alternateBounds" />
          </mxGeometry>
        </mxCell>
        <mxCell id="mGK4X3r3w6U-2YkT1dGA-186" value="gold.dim_network" style="shape=table;startSize=40;container=1;collapsible=1;childLayout=tableLayout;fixedRows=1;rowLines=0;fontStyle=1;align=center;resizeLast=1;html=1;rounded=1;fillColor=#fff2cc;strokeColor=#d6b656;fontSize=16;" vertex="1" parent="1">
          <mxGeometry x="880" y="510" width="200" height="118" as="geometry" />
        </mxCell>
        <mxCell id="mGK4X3r3w6U-2YkT1dGA-187" value="" style="shape=tableRow;horizontal=0;startSize=0;swimlaneHead=0;swimlaneBody=0;fillColor=none;collapsible=0;dropTarget=0;points=[[0,0.5],[1,0.5]];portConstraint=eastwest;top=0;left=0;right=0;bottom=1;fontSize=16;" vertex="1" parent="mGK4X3r3w6U-2YkT1dGA-186">
          <mxGeometry y="40" width="200" height="39" as="geometry" />
        </mxCell>
        <mxCell id="mGK4X3r3w6U-2YkT1dGA-188" value="PK" style="shape=partialRectangle;connectable=0;fillColor=none;top=0;left=0;bottom=0;right=0;fontStyle=1;overflow=hidden;whiteSpace=wrap;html=1;fontSize=16;" vertex="1" parent="mGK4X3r3w6U-2YkT1dGA-187">
          <mxGeometry width="30" height="39" as="geometry">
            <mxRectangle width="30" height="39" as="alternateBounds" />
          </mxGeometry>
        </mxCell>
        <mxCell id="mGK4X3r3w6U-2YkT1dGA-189" value="network_key" style="shape=partialRectangle;connectable=0;fillColor=none;top=0;left=0;bottom=0;right=0;align=left;spacingLeft=6;fontStyle=5;overflow=hidden;whiteSpace=wrap;html=1;fontSize=16;" vertex="1" parent="mGK4X3r3w6U-2YkT1dGA-187">
          <mxGeometry x="30" width="170" height="39" as="geometry">
            <mxRectangle width="170" height="39" as="alternateBounds" />
          </mxGeometry>
        </mxCell>
        <mxCell id="mGK4X3r3w6U-2YkT1dGA-190" value="" style="shape=tableRow;horizontal=0;startSize=0;swimlaneHead=0;swimlaneBody=0;fillColor=none;collapsible=0;dropTarget=0;points=[[0,0.5],[1,0.5]];portConstraint=eastwest;top=0;left=0;right=0;bottom=0;fontSize=16;" vertex="1" parent="mGK4X3r3w6U-2YkT1dGA-186">
          <mxGeometry y="79" width="200" height="39" as="geometry" />
        </mxCell>
        <mxCell id="mGK4X3r3w6U-2YkT1dGA-191" value="" style="shape=partialRectangle;connectable=0;fillColor=none;top=0;left=0;bottom=0;right=0;editable=1;overflow=hidden;whiteSpace=wrap;html=1;fontSize=16;" vertex="1" parent="mGK4X3r3w6U-2YkT1dGA-190">
          <mxGeometry width="30" height="39" as="geometry">
            <mxRectangle width="30" height="39" as="alternateBounds" />
          </mxGeometry>
        </mxCell>
        <mxCell id="mGK4X3r3w6U-2YkT1dGA-192" value="network_name" style="shape=partialRectangle;connectable=0;fillColor=none;top=0;left=0;bottom=0;right=0;align=left;spacingLeft=6;overflow=hidden;whiteSpace=wrap;html=1;fontSize=16;" vertex="1" parent="mGK4X3r3w6U-2YkT1dGA-190">
          <mxGeometry x="30" width="170" height="39" as="geometry">
            <mxRectangle width="170" height="39" as="alternateBounds" />
          </mxGeometry>
        </mxCell>
        <mxCell id="mGK4X3r3w6U-2YkT1dGA-193" value="gold.dim_status" style="shape=table;startSize=40;container=1;collapsible=1;childLayout=tableLayout;fixedRows=1;rowLines=0;fontStyle=1;align=center;resizeLast=1;html=1;rounded=1;fillColor=#fff2cc;strokeColor=#d6b656;fontSize=16;" vertex="1" parent="1">
          <mxGeometry x="880" y="690" width="200" height="118" as="geometry" />
        </mxCell>
        <mxCell id="mGK4X3r3w6U-2YkT1dGA-194" value="" style="shape=tableRow;horizontal=0;startSize=0;swimlaneHead=0;swimlaneBody=0;fillColor=none;collapsible=0;dropTarget=0;points=[[0,0.5],[1,0.5]];portConstraint=eastwest;top=0;left=0;right=0;bottom=1;fontSize=16;" vertex="1" parent="mGK4X3r3w6U-2YkT1dGA-193">
          <mxGeometry y="40" width="200" height="39" as="geometry" />
        </mxCell>
        <mxCell id="mGK4X3r3w6U-2YkT1dGA-195" value="PK" style="shape=partialRectangle;connectable=0;fillColor=none;top=0;left=0;bottom=0;right=0;fontStyle=1;overflow=hidden;whiteSpace=wrap;html=1;fontSize=16;" vertex="1" parent="mGK4X3r3w6U-2YkT1dGA-194">
          <mxGeometry width="30" height="39" as="geometry">
            <mxRectangle width="30" height="39" as="alternateBounds" />
          </mxGeometry>
        </mxCell>
        <mxCell id="mGK4X3r3w6U-2YkT1dGA-196" value="status_key" style="shape=partialRectangle;connectable=0;fillColor=none;top=0;left=0;bottom=0;right=0;align=left;spacingLeft=6;fontStyle=5;overflow=hidden;whiteSpace=wrap;html=1;fontSize=16;" vertex="1" parent="mGK4X3r3w6U-2YkT1dGA-194">
          <mxGeometry x="30" width="170" height="39" as="geometry">
            <mxRectangle width="170" height="39" as="alternateBounds" />
          </mxGeometry>
        </mxCell>
        <mxCell id="mGK4X3r3w6U-2YkT1dGA-197" value="" style="shape=tableRow;horizontal=0;startSize=0;swimlaneHead=0;swimlaneBody=0;fillColor=none;collapsible=0;dropTarget=0;points=[[0,0.5],[1,0.5]];portConstraint=eastwest;top=0;left=0;right=0;bottom=0;fontSize=16;" vertex="1" parent="mGK4X3r3w6U-2YkT1dGA-193">
          <mxGeometry y="79" width="200" height="39" as="geometry" />
        </mxCell>
        <mxCell id="mGK4X3r3w6U-2YkT1dGA-198" value="" style="shape=partialRectangle;connectable=0;fillColor=none;top=0;left=0;bottom=0;right=0;editable=1;overflow=hidden;whiteSpace=wrap;html=1;fontSize=16;" vertex="1" parent="mGK4X3r3w6U-2YkT1dGA-197">
          <mxGeometry width="30" height="39" as="geometry">
            <mxRectangle width="30" height="39" as="alternateBounds" />
          </mxGeometry>
        </mxCell>
        <mxCell id="mGK4X3r3w6U-2YkT1dGA-199" value="status_name" style="shape=partialRectangle;connectable=0;fillColor=none;top=0;left=0;bottom=0;right=0;align=left;spacingLeft=6;overflow=hidden;whiteSpace=wrap;html=1;fontSize=16;" vertex="1" parent="mGK4X3r3w6U-2YkT1dGA-197">
          <mxGeometry x="30" width="170" height="39" as="geometry">
            <mxRectangle width="170" height="39" as="alternateBounds" />
          </mxGeometry>
        </mxCell>
        <mxCell id="mGK4X3r3w6U-2YkT1dGA-200" value="" style="edgeStyle=entityRelationEdgeStyle;fontSize=12;html=1;endArrow=ERoneToMany;startArrow=ERmandOne;rounded=0;exitX=1;exitY=0.5;exitDx=0;exitDy=0;entryX=0;entryY=0.5;entryDx=0;entryDy=0;" edge="1" parent="1" source="mGK4X3r3w6U-2YkT1dGA-105" target="mGK4X3r3w6U-2YkT1dGA-8">
          <mxGeometry width="100" height="100" relative="1" as="geometry">
            <mxPoint x="280" y="320" as="sourcePoint" />
            <mxPoint x="380" y="220" as="targetPoint" />
          </mxGeometry>
        </mxCell>
        <mxCell id="mGK4X3r3w6U-2YkT1dGA-201" value="" style="edgeStyle=entityRelationEdgeStyle;fontSize=12;html=1;endArrow=ERoneToMany;startArrow=ERmandOne;rounded=0;exitX=1;exitY=0.5;exitDx=0;exitDy=0;entryX=0;entryY=0.5;entryDx=0;entryDy=0;jumpStyle=gap;" edge="1" parent="1" source="mGK4X3r3w6U-2YkT1dGA-136" target="mGK4X3r3w6U-2YkT1dGA-5">
          <mxGeometry width="100" height="100" relative="1" as="geometry">
            <mxPoint x="330" y="240" as="sourcePoint" />
            <mxPoint x="460" y="318" as="targetPoint" />
          </mxGeometry>
        </mxCell>
        <mxCell id="mGK4X3r3w6U-2YkT1dGA-202" value="" style="edgeStyle=entityRelationEdgeStyle;fontSize=12;html=1;endArrow=ERoneToMany;startArrow=ERmandOne;rounded=0;exitX=0;exitY=0.5;exitDx=0;exitDy=0;entryX=1;entryY=0.5;entryDx=0;entryDy=0;" edge="1" parent="1" source="mGK4X3r3w6U-2YkT1dGA-173" target="mGK4X3r3w6U-2YkT1dGA-11">
          <mxGeometry width="100" height="100" relative="1" as="geometry">
            <mxPoint x="740" y="72" as="sourcePoint" />
            <mxPoint x="870" y="150" as="targetPoint" />
          </mxGeometry>
        </mxCell>
        <mxCell id="mGK4X3r3w6U-2YkT1dGA-205" value="" style="edgeStyle=entityRelationEdgeStyle;fontSize=12;html=1;endArrow=ERoneToMany;startArrow=ERmandOne;rounded=0;exitX=0;exitY=0.5;exitDx=0;exitDy=0;entryX=1;entryY=0.5;entryDx=0;entryDy=0;" edge="1" parent="1" source="mGK4X3r3w6U-2YkT1dGA-180" target="mGK4X3r3w6U-2YkT1dGA-14">
          <mxGeometry width="100" height="100" relative="1" as="geometry">
            <mxPoint x="970" y="290" as="sourcePoint" />
            <mxPoint x="870" y="407" as="targetPoint" />
          </mxGeometry>
        </mxCell>
        <mxCell id="mGK4X3r3w6U-2YkT1dGA-209" value="" style="edgeStyle=entityRelationEdgeStyle;fontSize=12;html=1;endArrow=ERoneToMany;startArrow=ERmandOne;rounded=0;exitX=0;exitY=0.5;exitDx=0;exitDy=0;entryX=1;entryY=0.5;entryDx=0;entryDy=0;" edge="1" parent="1" source="mGK4X3r3w6U-2YkT1dGA-187" target="mGK4X3r3w6U-2YkT1dGA-17">
          <mxGeometry width="100" height="100" relative="1" as="geometry">
            <mxPoint x="820" y="624" as="sourcePoint" />
            <mxPoint x="760" y="600" as="targetPoint" />
          </mxGeometry>
        </mxCell>
        <mxCell id="mGK4X3r3w6U-2YkT1dGA-210" value="" style="edgeStyle=entityRelationEdgeStyle;fontSize=12;html=1;endArrow=ERoneToMany;startArrow=ERmandOne;rounded=0;exitX=0;exitY=0.5;exitDx=0;exitDy=0;entryX=1;entryY=0.5;entryDx=0;entryDy=0;" edge="1" parent="1" source="mGK4X3r3w6U-2YkT1dGA-194" target="mGK4X3r3w6U-2YkT1dGA-20">
          <mxGeometry width="100" height="100" relative="1" as="geometry">
            <mxPoint x="900" y="735" as="sourcePoint" />
            <mxPoint x="800" y="570" as="targetPoint" />
          </mxGeometry>
        </mxCell>
      </root>
    </mxGraphModel>
  </diagram>
</mxfile>
